<?xml version="1.0" encoding="UTF-8"?>
<!DOCTYPE svg PUBLIC "-//W3C//DTD SVG 1.1//EN" "http://www.w3.org/Graphics/SVG/1.1/DTD/svg11.dtd">
<svg xmlns="http://www.w3.org/2000/svg" version="1.1" width="512px" height="512px" style="shape-rendering:geometricPrecision; text-rendering:geometricPrecision; image-rendering:optimizeQuality; fill-rule:evenodd; clip-rule:evenodd" xmlns:xlink="http://www.w3.org/1999/xlink">
<g><path style="opacity:0.987" fill="#f8c45f" d="M 464.5,236.5 C 464.719,235.325 464.386,234.325 463.5,233.5C 457.979,231.142 453.145,227.809 449,223.5C 444.621,215.037 440.621,206.371 437,197.5C 419.27,167.319 392.77,151.986 357.5,151.5C 350.468,151.839 343.468,152.505 336.5,153.5C 326.565,153.116 318.399,149.116 312,141.5C 303.051,120.918 289.384,104.251 271,91.5C 270.617,92.056 270.117,92.3893 269.5,92.5C 285.551,47.6191 316.717,19.2857 363,7.5C 363.833,7.83333 364.667,8.16667 365.5,8.5C 348.472,61.2055 358.805,107.706 396.5,148C 426.83,176.005 462.497,186.838 503.5,180.5C 495.982,203.013 482.982,221.68 464.5,236.5 Z"/></g>
<g><path style="opacity:0.998" fill="#79838a" d="M 265.5,107.5 C 265.414,108.496 265.748,109.329 266.5,110C 285.6,124.683 298.934,143.516 306.5,166.5C 304.177,165.418 301.843,165.585 299.5,167C 269.305,181.892 252.305,206.059 248.5,239.5C 217.325,240.849 196.491,256.182 186,285.5C 181.719,302.488 183.552,318.822 191.5,334.5C 163.506,335.667 135.506,335.833 107.5,335C 67.3104,327.143 42.477,303.31 33,263.5C 28.7802,240.766 32.9469,219.766 45.5,200.5C 45.3764,199.893 45.0431,199.56 44.5,199.5C 57.5423,190.038 72.2089,184.705 88.5,183.5C 98.6941,129.806 130.694,97.9727 184.5,88C 214.006,84.6274 241.006,91.1274 265.5,107.5 Z"/></g>
<g><path style="opacity:1" fill="#f9ae42" d="M 464.5,236.5 C 459.64,240.423 454.64,244.09 449.5,247.5C 445.833,247.5 442.167,247.5 438.5,247.5C 432.937,205.098 409.27,178.931 367.5,169C 347.169,165.222 327.835,168.056 309.5,177.5C 308.652,173.773 307.652,170.107 306.5,166.5C 298.934,143.516 285.6,124.683 266.5,110C 265.748,109.329 265.414,108.496 265.5,107.5C 266.369,102.354 267.703,97.3541 269.5,92.5C 270.117,92.3893 270.617,92.056 271,91.5C 289.384,104.251 303.051,120.918 312,141.5C 318.399,149.116 326.565,153.116 336.5,153.5C 343.468,152.505 350.468,151.839 357.5,151.5C 392.77,151.986 419.27,167.319 437,197.5C 440.621,206.371 444.621,215.037 449,223.5C 453.145,227.809 457.979,231.142 463.5,233.5C 464.386,234.325 464.719,235.325 464.5,236.5 Z"/></g>
<g><path style="opacity:1" fill="#5d6972" d="M 306.5,166.5 C 307.652,170.107 308.652,173.773 309.5,177.5C 282.927,193.295 267.927,216.628 264.5,247.5C 253.22,247.653 242.553,250.32 232.5,255.5C 220.436,277.506 220.602,299.506 233,321.5C 243.706,337.444 258.539,347.277 277.5,351C 341.833,351.667 406.167,351.667 470.5,351C 479.19,349.603 487.523,347.103 495.5,343.5C 482.881,364.483 464.214,375.15 439.5,375.5C 439.383,365.884 434.55,360.55 425,359.5C 421.077,359.474 417.577,360.641 414.5,363C 411.934,367.316 409.267,371.483 406.5,375.5C 364.167,375.5 321.833,375.5 279.5,375.5C 279.383,365.884 274.55,360.55 265,359.5C 261.077,359.474 257.577,360.641 254.5,363C 252.267,366.651 249.934,370.151 247.5,373.5C 237.434,371.134 228.434,366.634 220.5,360C 183.835,359.5 147.168,359.333 110.5,359.5C 106.5,359.5 102.5,359.5 98.5,359.5C 55.4637,358.951 26.297,338.618 11,298.5C 1.45478,262.841 9.62145,232.008 35.5,206C 38.3785,203.615 41.3785,201.448 44.5,199.5C 45.0431,199.56 45.3764,199.893 45.5,200.5C 32.9469,219.766 28.7802,240.766 33,263.5C 42.477,303.31 67.3104,327.143 107.5,335C 135.506,335.833 163.506,335.667 191.5,334.5C 183.552,318.822 181.719,302.488 186,285.5C 196.491,256.182 217.325,240.849 248.5,239.5C 252.305,206.059 269.305,181.892 299.5,167C 301.843,165.585 304.177,165.418 306.5,166.5 Z"/></g>
<g><path style="opacity:0.999" fill="#7a838a" d="M 449.5,247.5 C 488.722,257.569 506.555,282.902 503,323.5C 501.766,330.711 499.266,337.378 495.5,343.5C 487.523,347.103 479.19,349.603 470.5,351C 406.167,351.667 341.833,351.667 277.5,351C 258.539,347.277 243.706,337.444 233,321.5C 220.602,299.506 220.436,277.506 232.5,255.5C 242.553,250.32 253.22,247.653 264.5,247.5C 267.927,216.628 282.927,193.295 309.5,177.5C 327.835,168.056 347.169,165.222 367.5,169C 409.27,178.931 432.937,205.098 438.5,247.5C 442.167,247.5 445.833,247.5 449.5,247.5 Z"/></g>
<g><path style="opacity:0.984" fill="#62b4e8" d="M 98.5,359.5 C 102.5,359.5 106.5,359.5 110.5,359.5C 118.474,363.799 121.308,370.465 119,379.5C 112.411,391.677 106.078,404.01 100,416.5C 95.0843,423.135 88.5843,425.302 80.5,423C 72.3901,418.936 69.5567,412.436 72,403.5C 78.5887,391.323 84.922,378.99 91,366.5C 93.3959,363.933 95.8959,361.6 98.5,359.5 Z"/></g>
<g><path style="opacity:0.988" fill="#62b4e7" d="M 279.5,375.5 C 279.657,376.873 279.49,378.207 279,379.5C 272.411,391.677 266.078,404.01 260,416.5C 253.434,424.042 245.6,425.542 236.5,421C 231.798,416.078 230.298,410.245 232,403.5C 237.435,393.63 242.601,383.63 247.5,373.5C 249.934,370.151 252.267,366.651 254.5,363C 257.577,360.641 261.077,359.474 265,359.5C 274.55,360.55 279.383,365.884 279.5,375.5 Z"/></g>
<g><path style="opacity:0.988" fill="#62b4e7" d="M 439.5,375.5 C 439.657,376.873 439.49,378.207 439,379.5C 432.411,391.677 426.078,404.01 420,416.5C 413.434,424.042 405.6,425.542 396.5,421C 391.798,416.078 390.298,410.245 392,403.5C 397.101,394.297 401.935,384.964 406.5,375.5C 409.267,371.483 411.934,367.316 414.5,363C 417.577,360.641 421.077,359.474 425,359.5C 434.55,360.55 439.383,365.884 439.5,375.5 Z"/></g>
<g><path style="opacity:0.984" fill="#62b4e8" d="M 178.5,439.5 C 194.154,437.322 200.987,443.988 199,459.5C 192.411,471.677 186.078,484.01 180,496.5C 173.434,504.042 165.6,505.542 156.5,501C 151.798,496.078 150.298,490.245 152,483.5C 158.589,471.323 164.922,458.99 171,446.5C 173.396,443.933 175.896,441.6 178.5,439.5 Z"/></g>
<g><path style="opacity:0.984" fill="#62b4e8" d="M 338.5,439.5 C 354.154,437.322 360.987,443.988 359,459.5C 352.411,471.677 346.078,484.01 340,496.5C 333.434,504.042 325.6,505.542 316.5,501C 311.798,496.078 310.298,490.245 312,483.5C 318.589,471.323 324.922,458.99 331,446.5C 333.396,443.933 335.896,441.6 338.5,439.5 Z"/></g>
</svg>
