<?xml version="1.0" encoding="UTF-8"?>
<!DOCTYPE svg PUBLIC "-//W3C//DTD SVG 1.1//EN" "http://www.w3.org/Graphics/SVG/1.1/DTD/svg11.dtd">
<svg xmlns="http://www.w3.org/2000/svg" version="1.1" width="340px" height="340px" style="shape-rendering:geometricPrecision; text-rendering:geometricPrecision; image-rendering:optimizeQuality; fill-rule:evenodd; clip-rule:evenodd" xmlns:xlink="http://www.w3.org/1999/xlink">
<g><path style="opacity:1" fill="#fefefe" d="M -0.5,-0.5 C 112.833,-0.5 226.167,-0.5 339.5,-0.5C 339.5,59.8333 339.5,120.167 339.5,180.5C 337.408,154.481 327.742,131.647 310.5,112C 303.378,105.221 295.045,100.554 285.5,98C 282.183,97.5017 278.85,97.335 275.5,97.5C 268.471,68.2524 253.471,44.0858 230.5,25C 194.89,3.8454 163.056,8.67874 135,39.5C 131.28,44.3798 127.78,49.3798 124.5,54.5C 102.162,60.2575 84.3289,72.5908 71,91.5C 53.3207,119.175 43.654,149.509 42,182.5C 29.4103,186.417 19.7436,194.084 13,205.5C 5.35298,218.604 0.852983,232.604 -0.5,247.5C -0.5,164.833 -0.5,82.1667 -0.5,-0.5 Z"/></g>
<g><path style="opacity:1" fill="#64b4f5" d="M 339.5,180.5 C 339.5,188.167 339.5,195.833 339.5,203.5C 337.813,232.71 326.479,257.543 305.5,278C 297.816,283.95 289.15,287.45 279.5,288.5C 277.076,288.808 274.743,288.474 272.5,287.5C 285.189,254.024 285.689,220.357 274,186.5C 266.773,165.941 253.273,151.107 233.5,142C 228.675,140.105 223.675,139.272 218.5,139.5C 212.325,112.975 199.325,90.4747 179.5,72C 163.685,58.4512 145.351,52.6179 124.5,54.5C 127.78,49.3798 131.28,44.3798 135,39.5C 163.056,8.67874 194.89,3.8454 230.5,25C 253.471,44.0858 268.471,68.2524 275.5,97.5C 278.85,97.335 282.183,97.5017 285.5,98C 295.045,100.554 303.378,105.221 310.5,112C 327.742,131.647 337.408,154.481 339.5,180.5 Z"/></g>
<g><path style="opacity:1" fill="#baddfa" d="M 124.5,54.5 C 145.351,52.6179 163.685,58.4512 179.5,72C 199.325,90.4747 212.325,112.975 218.5,139.5C 223.675,139.272 228.675,140.105 233.5,142C 253.273,151.107 266.773,165.941 274,186.5C 285.689,220.357 285.189,254.024 272.5,287.5C 274.743,288.474 277.076,288.808 279.5,288.5C 276.972,289.166 274.306,289.832 271.5,290.5C 264.165,307.003 252.499,319.503 236.5,328C 233.226,329.202 229.893,330.202 226.5,331C 165.167,331.667 103.833,331.667 42.5,331C 29.7943,327.234 19.961,319.734 13,308.5C 5.95138,295.523 1.45138,281.856 -0.5,267.5C -0.5,260.833 -0.5,254.167 -0.5,247.5C 0.852983,232.604 5.35298,218.604 13,205.5C 19.7436,194.084 29.4103,186.417 42,182.5C 43.654,149.509 53.3207,119.175 71,91.5C 84.3289,72.5908 102.162,60.2575 124.5,54.5 Z"/></g>
<g><path style="opacity:1" fill="#fefefe" d="M 339.5,203.5 C 339.5,248.833 339.5,294.167 339.5,339.5C 226.167,339.5 112.833,339.5 -0.5,339.5C -0.5,315.5 -0.5,291.5 -0.5,267.5C 1.45138,281.856 5.95138,295.523 13,308.5C 19.961,319.734 29.7943,327.234 42.5,331C 103.833,331.667 165.167,331.667 226.5,331C 229.893,330.202 233.226,329.202 236.5,328C 252.499,319.503 264.165,307.003 271.5,290.5C 274.306,289.832 276.972,289.166 279.5,288.5C 289.15,287.45 297.816,283.95 305.5,278C 326.479,257.543 337.813,232.71 339.5,203.5 Z"/></g>
</svg>
