<?xml version="1.0" encoding="UTF-8"?>
<!DOCTYPE svg PUBLIC "-//W3C//DTD SVG 1.1//EN" "http://www.w3.org/Graphics/SVG/1.1/DTD/svg11.dtd">
<svg xmlns="http://www.w3.org/2000/svg" version="1.1" width="410px" height="388px" style="shape-rendering:geometricPrecision; text-rendering:geometricPrecision; image-rendering:optimizeQuality; fill-rule:evenodd; clip-rule:evenodd" xmlns:xlink="http://www.w3.org/1999/xlink">
<g><path style="opacity:1" fill="#fefefe" d="M -0.5,-0.5 C 136.167,-0.5 272.833,-0.5 409.5,-0.5C 409.5,82.1667 409.5,164.833 409.5,247.5C 405.902,212.137 390.569,182.97 363.5,160C 350.962,150.986 336.962,145.819 321.5,144.5C 315.612,106.888 299.278,74.7217 272.5,48C 230.767,11.9186 185.767,7.25189 137.5,34C 106.197,56.3381 85.3636,86.1714 75,123.5C 69.2053,144.447 67.0386,165.78 68.5,187.5C 51.6625,189.669 37.4958,197.002 26,209.5C 11.1256,227.245 2.29226,247.578 -0.5,270.5C -0.5,180.167 -0.5,89.8333 -0.5,-0.5 Z"/></g>
<g><path style="opacity:1" fill="#bbdefa" d="M 409.5,247.5 C 409.5,256.167 409.5,264.833 409.5,273.5C 406.347,307.307 392.347,335.807 367.5,359C 355.256,369.12 341.256,375.454 325.5,378C 237.47,378.984 149.47,378.651 61.5,377C 36.1711,368.238 18.3377,351.405 8,326.5C 3.81532,315.705 0.981988,304.705 -0.5,293.5C -0.5,285.833 -0.5,278.167 -0.5,270.5C 2.29226,247.578 11.1256,227.245 26,209.5C 37.4958,197.002 51.6625,189.669 68.5,187.5C 67.0386,165.78 69.2053,144.447 75,123.5C 85.3636,86.1714 106.197,56.3381 137.5,34C 185.767,7.25189 230.767,11.9186 272.5,48C 299.278,74.7217 315.612,106.888 321.5,144.5C 336.962,145.819 350.962,150.986 363.5,160C 390.569,182.97 405.902,212.137 409.5,247.5 Z"/></g>
<g><path style="opacity:1" fill="#fefefe" d="M 409.5,273.5 C 409.5,311.5 409.5,349.5 409.5,387.5C 272.833,387.5 136.167,387.5 -0.5,387.5C -0.5,356.167 -0.5,324.833 -0.5,293.5C 0.981988,304.705 3.81532,315.705 8,326.5C 18.3377,351.405 36.1711,368.238 61.5,377C 149.47,378.651 237.47,378.984 325.5,378C 341.256,375.454 355.256,369.12 367.5,359C 392.347,335.807 406.347,307.307 409.5,273.5 Z"/></g>
</svg>
