<?xml version="1.0" encoding="UTF-8"?>
<!DOCTYPE svg PUBLIC "-//W3C//DTD SVG 1.1//EN" "http://www.w3.org/Graphics/SVG/1.1/DTD/svg11.dtd">
<svg xmlns="http://www.w3.org/2000/svg" version="1.1" width="410px" height="340px" style="shape-rendering:geometricPrecision; text-rendering:geometricPrecision; image-rendering:optimizeQuality; fill-rule:evenodd; clip-rule:evenodd" xmlns:xlink="http://www.w3.org/1999/xlink">
<g><path style="opacity:1" fill="#fefefe" d="M -0.5,-0.5 C 136.167,-0.5 272.833,-0.5 409.5,-0.5C 409.5,59.8333 409.5,120.167 409.5,180.5C 406.306,153.945 394.972,131.445 375.5,113C 363.004,102.887 348.671,97.3875 332.5,96.5C 321.448,62.2907 300.114,36.7907 268.5,20C 226.229,3.65406 189.396,11.8207 158,44.5C 155.259,47.7289 152.759,51.0622 150.5,54.5C 114.46,62.0263 87.6269,82.0263 70,114.5C 58.6912,135.73 52.3578,158.397 51,182.5C 24.8037,190.367 8.47037,207.701 2,234.5C 1.26771,239.661 0.434379,244.661 -0.5,249.5C -0.5,166.167 -0.5,82.8333 -0.5,-0.5 Z"/></g>
<g><path style="opacity:1" fill="#64b5f5" d="M 409.5,180.5 C 409.5,188.167 409.5,195.833 409.5,203.5C 406.834,230.323 395.834,253.157 376.5,272C 364.128,282.514 349.795,288.014 333.5,288.5C 331.801,288.66 330.134,288.494 328.5,288C 339.029,266.009 342.863,242.842 340,218.5C 336.349,189.678 322.849,166.844 299.5,150C 288.719,143.518 277.053,139.851 264.5,139C 255.051,111.898 239.051,89.5649 216.5,72C 196.636,58.2418 174.636,52.4085 150.5,54.5C 152.759,51.0622 155.259,47.7289 158,44.5C 189.396,11.8207 226.229,3.65406 268.5,20C 300.114,36.7907 321.448,62.2907 332.5,96.5C 348.671,97.3875 363.004,102.887 375.5,113C 394.972,131.445 406.306,153.945 409.5,180.5 Z"/></g>
<g><path style="opacity:1" fill="#bbddfa" d="M 150.5,54.5 C 174.636,52.4085 196.636,58.2418 216.5,72C 239.051,89.5649 255.051,111.898 264.5,139C 277.053,139.851 288.719,143.518 299.5,150C 322.849,166.844 336.349,189.678 340,218.5C 342.863,242.842 339.029,266.009 328.5,288C 330.134,288.494 331.801,288.66 333.5,288.5C 331.708,289.309 329.708,289.809 327.5,290C 315.722,311.886 297.722,325.553 273.5,331C 199.5,331.667 125.5,331.667 51.5,331C 30.6229,325.648 15.7895,313.148 7,293.5C 5.53036,288.757 3.86369,284.091 2,279.5C 1.41096,273.652 0.57763,267.986 -0.5,262.5C -0.5,258.167 -0.5,253.833 -0.5,249.5C 0.434379,244.661 1.26771,239.661 2,234.5C 8.47037,207.701 24.8037,190.367 51,182.5C 52.3578,158.397 58.6912,135.73 70,114.5C 87.6269,82.0263 114.46,62.0263 150.5,54.5 Z"/></g>
<g><path style="opacity:1" fill="#fefefe" d="M 409.5,203.5 C 409.5,248.833 409.5,294.167 409.5,339.5C 272.833,339.5 136.167,339.5 -0.5,339.5C -0.5,313.833 -0.5,288.167 -0.5,262.5C 0.57763,267.986 1.41096,273.652 2,279.5C 3.86369,284.091 5.53036,288.757 7,293.5C 15.7895,313.148 30.6229,325.648 51.5,331C 125.5,331.667 199.5,331.667 273.5,331C 297.722,325.553 315.722,311.886 327.5,290C 329.708,289.809 331.708,289.309 333.5,288.5C 349.795,288.014 364.128,282.514 376.5,272C 395.834,253.157 406.834,230.323 409.5,203.5 Z"/></g>
</svg>
