<?xml version="1.0" encoding="UTF-8"?>
<!DOCTYPE svg PUBLIC "-//W3C//DTD SVG 1.1//EN" "http://www.w3.org/Graphics/SVG/1.1/DTD/svg11.dtd">
<svg xmlns="http://www.w3.org/2000/svg" version="1.1" width="512px" height="512px" style="shape-rendering:geometricPrecision; text-rendering:geometricPrecision; image-rendering:optimizeQuality; fill-rule:evenodd; clip-rule:evenodd" xmlns:xlink="http://www.w3.org/1999/xlink">
<g><path style="opacity:0.826" fill="#231625" d="M 146.5,19.5 C 147.978,19.238 149.311,19.5713 150.5,20.5C 151.712,23.7672 152.712,27.1006 153.5,30.5C 166.25,33.9302 166.583,37.9302 154.5,42.5C 155.585,45.773 155.752,49.1064 155,52.5C 153.951,53.5171 152.784,53.6838 151.5,53C 147.895,50.6171 144.395,48.1171 141,45.5C 136.601,46.8665 132.101,47.5331 127.5,47.5C 128.318,43.5254 129.984,39.8588 132.5,36.5C 129.709,33.7223 128.376,30.389 128.5,26.5C 132.225,26.5949 135.891,26.7616 139.5,27C 142.039,24.6303 144.372,22.1303 146.5,19.5 Z M 147.5,23.5 C 151.027,28.9955 149.693,30.4955 143.5,28C 145.041,26.6288 146.375,25.1288 147.5,23.5 Z M 132.5,30.5 C 133.892,29.478 135.225,29.8113 136.5,31.5C 136.192,32.3081 135.692,32.9747 135,33.5C 134.148,32.4293 133.315,31.4293 132.5,30.5 Z M 140.5,31.5 C 143.601,31.6917 146.601,32.3584 149.5,33.5C 150.23,35.3413 150.897,37.1746 151.5,39C 148.57,40.3179 145.57,40.9846 142.5,41C 140.833,39.3333 139.167,37.6667 137.5,36C 138.883,34.7292 139.883,33.2292 140.5,31.5 Z M 153.5,34.5 C 155.179,34.8923 156.846,35.3923 158.5,36C 155.963,38.2094 154.297,37.7094 153.5,34.5 Z M 134.5,39.5 C 136.196,39.6854 137.529,40.5187 138.5,42C 136.728,43.4868 134.728,43.8201 132.5,43C 133.823,42.1841 134.489,41.0174 134.5,39.5 Z M 150.5,42.5 C 151.568,44.6718 152.068,47.0051 152,49.5C 150.442,47.6411 148.609,46.1411 146.5,45C 147.858,44.0656 149.192,43.2323 150.5,42.5 Z"/></g>
<g><path style="opacity:0.831" fill="#231625" d="M 259.5,38.5 C 260.117,38.6107 260.617,38.944 261,39.5C 261.333,41.8333 261.667,44.1667 262,46.5C 263.745,45.0443 265.578,43.711 267.5,42.5C 269.968,44.9906 269.302,46.8239 265.5,48C 266.793,48.49 268.127,48.6567 269.5,48.5C 269.5,49.5 269.5,50.5 269.5,51.5C 267.801,51.3398 266.134,51.5065 264.5,52C 266.607,53.2635 267.607,55.0968 267.5,57.5C 265.097,57.607 263.264,56.607 262,54.5C 260.131,63.6899 258.798,63.3565 258,53.5C 255.928,56.121 253.428,56.7877 250.5,55.5C 251.313,54.1861 252.313,53.0195 253.5,52C 251.866,51.5065 250.199,51.3398 248.5,51.5C 248.5,50.5 248.5,49.5 248.5,48.5C 250.857,48.6633 253.19,48.4966 255.5,48C 253.393,46.7365 252.393,44.9032 252.5,42.5C 254.903,42.393 256.736,43.393 258,45.5C 258.29,43.0796 258.79,40.7463 259.5,38.5 Z"/></g>
<g><path style="opacity:0.814" fill="#231625" d="M 342.5,41.5 C 343.978,41.238 345.311,41.5713 346.5,42.5C 348.276,46.3934 350.276,50.0601 352.5,53.5C 356.9,50.8655 361.567,49.3655 366.5,49C 367.08,53.0924 367.246,57.2591 367,61.5C 372.072,60.5286 377.238,60.1953 382.5,60.5C 381.729,65.3108 380.062,69.8108 377.5,74C 381.85,75.4487 386.016,77.282 390,79.5C 390.667,80.5 390.667,81.5 390,82.5C 386.958,85.7106 383.791,88.7106 380.5,91.5C 383.124,93.6218 385.624,95.9552 388,98.5C 389.187,100.044 389.52,101.711 389,103.5C 384.399,105.98 379.565,107.98 374.5,109.5C 376.905,113.503 377.905,117.67 377.5,122C 372.449,122.492 367.449,122.492 362.5,122C 361.199,125.565 359.699,129.065 358,132.5C 357.311,133.357 356.478,134.023 355.5,134.5C 351.48,131.314 347.98,127.647 345,123.5C 341.584,127.587 337.584,130.92 333,133.5C 330.896,129.768 329.396,125.768 328.5,121.5C 323.277,123.746 317.943,125.246 312.5,126C 311.596,120.736 312.262,115.569 314.5,110.5C 310.936,109.034 307.27,107.868 303.5,107C 301.522,106.519 300.189,105.353 299.5,103.5C 301.786,99.5458 304.786,96.2125 308.5,93.5C 303.833,90.8333 300.167,87.1667 297.5,82.5C 298.313,81.1861 299.313,80.0195 300.5,79C 304.087,77.7903 307.42,76.2903 310.5,74.5C 308.226,70.2864 306.226,65.9531 304.5,61.5C 305.527,59.976 307.027,59.3094 309,59.5C 312.83,60.2499 316.663,60.9166 320.5,61.5C 320.503,56.4725 320.836,51.4725 321.5,46.5C 327.651,47.6576 333.151,50.3243 338,54.5C 339.045,49.9776 340.545,45.6442 342.5,41.5 Z M 346.5,119.5 C 368.451,114.286 376.618,100.619 371,78.5C 362.323,62.1591 349.156,56.9924 331.5,63C 317.022,71.0752 311.855,83.2419 316,99.5C 320.785,112.11 329.952,118.777 343.5,119.5C 340.854,122.812 337.854,125.812 334.5,128.5C 333.226,125.633 332.393,122.633 332,119.5C 331.481,118.484 330.647,117.818 329.5,117.5C 324.562,119.538 319.562,121.038 314.5,122C 315.906,117.546 317.24,113.046 318.5,108.5C 313.603,106.521 308.603,104.687 303.5,103C 307.109,100.046 310.442,96.8796 313.5,93.5C 309.699,89.8716 305.699,86.3716 301.5,83C 306.249,80.8277 310.916,78.661 315.5,76.5C 313.215,72.2647 311.215,67.9314 309.5,63.5C 314.186,64.0373 318.853,64.704 323.5,65.5C 323.09,60.3268 323.757,55.3268 325.5,50.5C 329.769,53.5513 334.269,56.2179 339,58.5C 340.978,54.98 342.812,51.3134 344.5,47.5C 346.5,51.1667 348.5,54.8333 350.5,58.5C 354.5,56.5 358.5,54.5 362.5,52.5C 363.184,56.4463 363.184,60.4463 362.5,64.5C 367.828,63.8516 373.162,63.6849 378.5,64C 376.242,67.9923 374.742,72.159 374,76.5C 378.174,77.9206 382.341,79.4206 386.5,81C 382.749,84.5179 379.083,88.0179 375.5,91.5C 378.5,95.1667 381.833,98.5 385.5,101.5C 380.787,103.764 375.787,105.264 370.5,106C 370.043,106.414 369.709,106.914 369.5,107.5C 371.441,111.048 373.107,114.714 374.5,118.5C 373.333,118.833 372.167,119.167 371,119.5C 367.435,118.849 363.935,118.349 360.5,118C 358.856,121.937 357.023,125.77 355,129.5C 352.302,125.975 349.469,122.642 346.5,119.5 Z"/></g>
<g><path style="opacity:0.982" fill="#f0c000" d="M 346.5,119.5 C 345.5,119.5 344.5,119.5 343.5,119.5C 329.952,118.777 320.785,112.11 316,99.5C 311.855,83.2419 317.022,71.0752 331.5,63C 349.156,56.9924 362.323,62.1591 371,78.5C 376.618,100.619 368.451,114.286 346.5,119.5 Z"/></g>
<g><path style="opacity:1" fill="#2e1e25" d="M 332.5,68.5 C 335.157,68.162 337.49,68.8287 339.5,70.5C 338.169,71.1662 336.669,71.1662 335,70.5C 333.624,70.3158 332.791,69.6491 332.5,68.5 Z"/></g>
<g><path style="opacity:1" fill="#382725" d="M 345.5,68.5 C 348.168,68.8337 350.168,70.1671 351.5,72.5C 351.167,72.8333 350.833,73.1667 350.5,73.5C 348.054,72.4756 346.388,70.8089 345.5,68.5 Z"/></g>
<g><path style="opacity:0.807" fill="#231625" d="M 161.5,70.5 C 183.52,70.2137 205.52,70.7137 227.5,72C 265.545,73.5281 280.378,93.0281 272,130.5C 269.933,140.151 264.433,146.984 255.5,151C 221.854,152.252 188.187,152.918 154.5,153C 146.063,153.198 137.73,154.198 129.5,156C 128.903,157.062 128.57,158.228 128.5,159.5C 129.676,164.537 131.009,169.537 132.5,174.5C 132.347,177.273 130.847,178.607 128,178.5C 106.621,175.654 89.6207,165.654 77,148.5C 70.2825,134.908 67.9491,120.574 70,105.5C 75.2332,87.9504 87.0666,77.7837 105.5,75C 124.258,72.8115 142.925,71.3115 161.5,70.5 Z M 169.5,73.5 C 194.973,72.8844 220.306,74.3844 245.5,78C 259.18,81.6818 267.347,90.5152 270,104.5C 272.394,117.8 270.061,130.133 263,141.5C 260.407,144.543 257.24,146.71 253.5,148C 218.849,149.212 184.182,149.879 149.5,150C 142.057,150.231 134.724,151.231 127.5,153C 125.643,154.182 124.643,155.849 124.5,158C 125.731,163.192 127.064,168.359 128.5,173.5C 128.167,174.167 127.833,174.833 127.5,175.5C 109.172,172.094 94.0054,163.427 82,149.5C 71.2418,131.789 69.9085,113.456 78,94.5C 85.6469,85.2067 95.4802,79.7067 107.5,78C 128.266,75.7933 148.933,74.2933 169.5,73.5 Z"/></g>
<g><path style="opacity:1" fill="#392724" d="M 337.5,75.5 C 340.585,75.542 342.919,76.8753 344.5,79.5C 343.998,80.521 343.332,80.6877 342.5,80C 340.308,78.9331 338.642,77.4331 337.5,75.5 Z"/></g>
<g><path style="opacity:1" fill="#372524" d="M 348.5,77.5 C 351.308,77.9695 353.642,79.3028 355.5,81.5C 355.167,81.8333 354.833,82.1667 354.5,82.5C 353.088,81.1936 351.421,80.3603 349.5,80C 348.748,79.3292 348.414,78.4959 348.5,77.5 Z"/></g>
<g><path style="opacity:1" fill="#3b2824" d="M 358.5,77.5 C 361.089,78.4194 363.089,80.086 364.5,82.5C 363.998,83.521 363.332,83.6877 362.5,83C 360.536,81.549 359.203,79.7157 358.5,77.5 Z"/></g>
<g><path style="opacity:0.97" fill="#f3c200" d="M 229.5,81.5 C 232.263,81.7438 234.429,83.0771 236,85.5C 238.374,89.7495 240.874,93.9162 243.5,98C 248.229,98.2727 252.896,98.9393 257.5,100C 259.855,101.865 260.022,104.031 258,106.5C 255.131,108.504 252.631,110.837 250.5,113.5C 251.756,118.112 252.756,122.779 253.5,127.5C 253.658,129.319 252.991,130.652 251.5,131.5C 245.471,129.404 239.971,126.404 235,122.5C 230.959,126.765 226.459,130.432 221.5,133.5C 220.808,132.975 220.308,132.308 220,131.5C 219.276,126.479 218.442,121.479 217.5,116.5C 214.193,114.36 211.026,112.026 208,109.5C 207.28,107.888 207.446,106.388 208.5,105C 213.205,102.766 218.039,100.932 223,99.5C 224.483,93.2155 226.649,87.2155 229.5,81.5 Z"/></g>
<g><path style="opacity:0.962" fill="#f3c200" d="M 168.5,83.5 C 170.903,83.393 172.736,84.393 174,86.5C 176.958,90.9157 179.792,95.4157 182.5,100C 187.901,100.369 193.068,101.536 198,103.5C 198.667,104.833 198.667,106.167 198,107.5C 195.106,110.361 191.939,112.861 188.5,115C 190.952,120.593 192.119,126.426 192,132.5C 189.853,133.476 187.686,133.309 185.5,132C 181.411,129.873 177.577,127.373 174,124.5C 170.225,129.113 165.725,132.78 160.5,135.5C 159.914,135.291 159.414,134.957 159,134.5C 158.232,129.154 157.399,123.821 156.5,118.5C 151.867,116.863 148.534,113.863 146.5,109.5C 146.59,107.575 147.59,106.408 149.5,106C 153.716,104.316 158.049,103.149 162.5,102.5C 163.297,95.777 165.297,89.4437 168.5,83.5 Z"/></g>
<g><path style="opacity:0.969" fill="#f3c200" d="M 103.5,87.5 C 105.716,88.2026 107.549,89.5359 109,91.5C 111.374,95.7495 113.874,99.9162 116.5,104C 120.819,104.76 125.152,105.427 129.5,106C 131.291,106.415 132.624,107.415 133.5,109C 130.466,113.029 127.133,116.696 123.5,120C 125.541,125.663 126.541,131.497 126.5,137.5C 120.046,135.942 114.046,133.275 108.5,129.5C 104.356,132.476 100.356,135.643 96.5,139C 95.365,139.749 94.365,139.583 93.5,138.5C 92.7906,133.121 91.7906,127.788 90.5,122.5C 86.5103,120.353 83.1769,117.52 80.5,114C 81.6612,111.407 83.6612,109.741 86.5,109C 89.7679,107.85 93.1012,107.016 96.5,106.5C 97.4611,99.6122 99.7945,93.2788 103.5,87.5 Z"/></g>
<g><path style="opacity:0.882" fill="#2e2130" d="M 431.5,92.5 C 436.67,92.6671 441.503,94.0004 446,96.5C 455.154,90.2617 463.154,91.5951 470,100.5C 471.197,103.089 472.197,105.756 473,108.5C 484.576,112.89 487.243,120.556 481,131.5C 476.302,138.02 469.969,142.02 462,143.5C 458.93,142.924 456.263,141.591 454,139.5C 445.845,143.641 437.345,144.474 428.5,142C 426.457,140.292 424.79,138.292 423.5,136C 409.299,131.428 405.799,122.595 413,109.5C 416.065,106.051 419.898,104.384 424.5,104.5C 424.302,98.8797 426.636,94.8797 431.5,92.5 Z"/></g>
<g><path style="opacity:1" fill="#f9f9f9" d="M 431.5,95.5 C 436.467,94.8264 440.8,96.1597 444.5,99.5C 442.609,102.962 442.109,106.628 443,110.5C 448.178,114.832 451.011,113.499 451.5,106.5C 451.482,103.476 450.482,100.81 448.5,98.5C 458.684,92.9142 465.684,95.7476 469.5,107C 466.425,110.075 463.259,113.241 460,116.5C 459.28,118.112 459.446,119.612 460.5,121C 467.372,121.632 471.039,118.465 471.5,111.5C 481.773,114.096 484.273,120.096 479,129.5C 474.963,135.372 469.463,139.039 462.5,140.5C 456.091,140.009 454.591,137.342 458,132.5C 458.667,130.167 458.667,127.833 458,125.5C 454.841,122.659 452.508,123.326 451,127.5C 450.397,130.656 450.897,133.656 452.5,136.5C 450.446,138.194 448.112,139.361 445.5,140C 440.5,140.667 435.5,140.667 430.5,140C 428.981,138.649 427.648,137.149 426.5,135.5C 434.305,133.553 436.472,128.886 433,121.5C 430.408,120.018 428.075,120.352 426,122.5C 424.308,125.644 423.142,128.977 422.5,132.5C 409.936,126.947 408.27,119.114 417.5,109C 420.688,107.684 424.022,107.184 427.5,107.5C 427.336,104.813 427.503,102.146 428,99.5C 428.69,97.6498 429.856,96.3164 431.5,95.5 Z"/></g>
<g><path style="opacity:1" fill="#f4f3f4" d="M 445.5,101.5 C 449.254,102.828 450.421,105.494 449,109.5C 447.667,110.833 446.333,110.833 445,109.5C 444.278,106.739 444.445,104.073 445.5,101.5 Z"/></g>
<g><path style="opacity:1" fill="#eae9ea" d="M 466.5,112.5 C 469.872,113.57 469.872,115.403 466.5,118C 464.854,119.401 463.187,119.568 461.5,118.5C 463.19,116.481 464.856,114.481 466.5,112.5 Z"/></g>
<g><path style="opacity:1" fill="#ecebec" d="M 428.5,122.5 C 432.146,123.462 433.313,125.795 432,129.5C 430.535,131.915 428.368,132.915 425.5,132.5C 425.307,128.752 426.307,125.418 428.5,122.5 Z"/></g>
<g><path style="opacity:1" fill="#e7e5e7" d="M 454.5,125.5 C 455.993,126.312 456.66,127.645 456.5,129.5C 456.563,131.481 455.896,133.148 454.5,134.5C 453.259,131.463 453.259,128.463 454.5,125.5 Z"/></g>
<g><path style="opacity:0.825" fill="#241625" d="M 302.5,147.5 C 303.675,147.281 304.675,147.614 305.5,148.5C 306.501,151.172 307.501,153.839 308.5,156.5C 311.573,157.026 313.906,158.526 315.5,161C 315.355,161.772 315.022,162.439 314.5,163C 312.254,164.039 310.087,165.206 308,166.5C 306.961,168.746 305.794,170.913 304.5,173C 303.207,173.49 301.873,173.657 300.5,173.5C 300.174,170.689 299.341,168.022 298,165.5C 294.788,164.826 291.955,163.492 289.5,161.5C 291.946,158.769 294.946,156.769 298.5,155.5C 299.842,152.816 301.176,150.149 302.5,147.5 Z M 302.5,154.5 C 304.085,155.474 305.085,156.974 305.5,159C 307.087,159.862 308.754,160.529 310.5,161C 306.344,161.829 303.844,164.329 303,168.5C 302.676,163.75 300.176,161.25 295.5,161C 297.5,160 299.5,159 301.5,158C 302.337,156.989 302.67,155.822 302.5,154.5 Z"/></g>
<g><path style="opacity:0.981" fill="#d15b30" d="M 395.5,167.5 C 395.427,169.027 396.094,170.027 397.5,170.5C 399.659,177.407 399.992,184.407 398.5,191.5C 403.628,191.112 408.628,191.612 413.5,193C 414.701,193.903 415.535,195.069 416,196.5C 416.498,199.482 416.665,202.482 416.5,205.5C 414.022,206.195 412.022,207.695 410.5,210C 407.854,210.497 405.187,210.664 402.5,210.5C 402.5,211.5 402.5,212.5 402.5,213.5C 407.375,213.763 411.708,212.43 415.5,209.5C 422.778,209.663 425.611,213.329 424,220.5C 423.246,223.684 421.746,226.351 419.5,228.5C 419.631,227.624 419.298,226.957 418.5,226.5C 414.706,229.522 410.372,231.188 405.5,231.5C 408.106,232.652 410.773,232.818 413.5,232C 415.407,230.878 417.407,230.045 419.5,229.5C 426.792,232.547 428.626,237.547 425,244.5C 406.971,262.478 386.137,266.645 362.5,257C 359.306,256.408 356.139,256.574 353,257.5C 351.105,257.385 349.438,256.718 348,255.5C 340.225,238.809 338.558,221.476 343,203.5C 353.844,200.662 364.344,196.829 374.5,192C 377.076,188.285 378.076,184.118 377.5,179.5C 382.143,178.682 384.476,175.849 384.5,171C 384.387,167.825 383.387,164.992 381.5,162.5C 381.167,163 380.833,163.5 380.5,164C 382.144,167.359 382.644,170.859 382,174.5C 380.871,176.141 379.371,177.141 377.5,177.5C 377.5,175.833 377.5,174.167 377.5,172.5C 377.768,170.901 377.434,169.568 376.5,168.5C 375.493,157.014 379.827,154.181 389.5,160C 392.094,162.086 394.094,164.586 395.5,167.5 Z"/></g>
<g><path style="opacity:0.793" fill="#221624" d="M 47.5,159.5 C 58.8598,158.71 62.1931,163.543 57.5,174C 47.9721,177.794 43.4721,174.627 44,164.5C 44.9973,162.677 46.1639,161.01 47.5,159.5 Z M 49.5,162.5 C 54.6646,162.162 56.8313,164.495 56,169.5C 51.9231,173.859 48.7564,173.192 46.5,167.5C 47.2599,165.64 48.2599,163.973 49.5,162.5 Z"/></g>
<g><path style="opacity:1" fill="#2f1b26" d="M 377.5,179.5 C 377.5,178.833 377.5,178.167 377.5,177.5C 379.371,177.141 380.871,176.141 382,174.5C 382.644,170.859 382.144,167.359 380.5,164C 380.833,163.5 381.167,163 381.5,162.5C 383.387,164.992 384.387,167.825 384.5,171C 384.476,175.849 382.143,178.682 377.5,179.5 Z"/></g>
<g><path style="opacity:0.811" fill="#231625" d="M 395.5,167.5 C 426.204,167.409 444.038,182.409 449,212.5C 450.382,226.761 449.049,240.761 445,254.5C 442.685,261.619 438.519,267.452 432.5,272C 406.582,288.416 378.248,296.749 347.5,297C 346.446,295.612 346.28,294.112 347,292.5C 352.325,287.569 357.825,282.735 363.5,278C 339.647,276.48 325.48,263.98 321,240.5C 312.545,210.253 322.379,188.42 350.5,175C 358.949,171.888 367.615,169.721 376.5,168.5C 377.434,169.568 377.768,170.901 377.5,172.5C 356.565,173.383 339.732,182.05 327,198.5C 320.917,211.413 319.917,224.746 324,238.5C 325.913,249.831 331.08,259.331 339.5,267C 341.5,268 343.5,269 345.5,270C 352.761,271.678 359.927,273.511 367,275.5C 367.52,277.289 367.187,278.956 366,280.5C 360.791,285.378 355.291,289.878 349.5,294C 378.781,292.905 405.781,284.572 430.5,269C 435.947,264.601 439.78,259.101 442,252.5C 447.351,235.557 447.685,218.557 443,201.5C 438.99,188.824 430.824,179.99 418.5,175C 411.649,172.703 404.649,171.203 397.5,170.5C 396.094,170.027 395.427,169.027 395.5,167.5 Z M 397.5,170.5 C 404.649,171.203 411.649,172.703 418.5,175C 430.824,179.99 438.99,188.824 443,201.5C 447.685,218.557 447.351,235.557 442,252.5C 439.78,259.101 435.947,264.601 430.5,269C 405.781,284.572 378.781,292.905 349.5,294C 355.291,289.878 360.791,285.378 366,280.5C 367.187,278.956 367.52,277.289 367,275.5C 359.927,273.511 352.761,271.678 345.5,270C 343.5,269 341.5,268 339.5,267C 331.08,259.331 325.913,249.831 324,238.5C 319.917,224.746 320.917,211.413 327,198.5C 339.732,182.05 356.565,173.383 377.5,172.5C 377.5,174.167 377.5,175.833 377.5,177.5C 377.5,178.167 377.5,178.833 377.5,179.5C 378.076,184.118 377.076,188.285 374.5,192C 364.344,196.829 353.844,200.662 343,203.5C 338.558,221.476 340.225,238.809 348,255.5C 349.438,256.718 351.105,257.385 353,257.5C 356.139,256.574 359.306,256.408 362.5,257C 386.137,266.645 406.971,262.478 425,244.5C 428.626,237.547 426.792,232.547 419.5,229.5C 419.5,229.167 419.5,228.833 419.5,228.5C 421.746,226.351 423.246,223.684 424,220.5C 425.611,213.329 422.778,209.663 415.5,209.5C 416.234,208.292 416.567,206.959 416.5,205.5C 416.665,202.482 416.498,199.482 416,196.5C 415.535,195.069 414.701,193.903 413.5,193C 408.628,191.612 403.628,191.112 398.5,191.5C 399.992,184.407 399.659,177.407 397.5,170.5 Z"/></g>
<g><path style="opacity:0.862" fill="#231725" d="M 472.5,177.5 C 473.496,177.414 474.329,177.748 475,178.5C 475.192,180.577 475.692,182.577 476.5,184.5C 478.001,183.248 479.668,182.248 481.5,181.5C 482.754,183.259 482.421,184.759 480.5,186C 481.91,186.368 482.91,187.201 483.5,188.5C 482.286,190.069 480.619,190.902 478.5,191C 480.422,192.46 481.089,194.127 480.5,196C 478.406,196.445 476.906,195.612 476,193.5C 474.872,195.345 474.372,197.345 474.5,199.5C 473.5,199.5 472.5,199.5 471.5,199.5C 471.663,197.143 471.497,194.81 471,192.5C 469.266,194.451 467.099,195.451 464.5,195.5C 464.137,193.089 465.137,191.589 467.5,191C 465.285,190.83 463.285,190.163 461.5,189C 463.635,187.619 465.968,186.619 468.5,186C 466.485,184.445 466.152,182.611 467.5,180.5C 468.814,181.313 469.981,182.313 471,183.5C 471.315,181.414 471.815,179.414 472.5,177.5 Z"/></g>
<g><path style="opacity:0.819" fill="#231624" d="M 14.5,183.5 C 29.6874,186.618 44.354,191.451 58.5,198C 61.7591,199.211 64.5925,201.044 67,203.5C 67.7112,205.367 67.2112,206.867 65.5,208C 61.5246,209.226 57.8579,210.892 54.5,213C 53.7142,218.31 52.3809,223.477 50.5,228.5C 49.277,229.614 47.9437,229.781 46.5,229C 45.3333,227.833 44.1667,226.667 43,225.5C 42.0642,229.207 40.2308,232.374 37.5,235C 36.0039,235.507 34.8373,235.007 34,233.5C 25.5373,217.579 19.0373,200.912 14.5,183.5 Z M 29.5,191.5 C 29.56,190.957 29.8933,190.624 30.5,190.5C 41.8246,194.661 52.8246,199.494 63.5,205C 60.5394,206.265 57.5394,207.431 54.5,208.5C 46.3111,202.576 37.9777,196.909 29.5,191.5 Z M 20.5,193.5 C 27.7842,201.12 35.1175,208.786 42.5,216.5C 41.0334,221.429 39.0334,226.096 36.5,230.5C 30.3461,218.525 25.0127,206.192 20.5,193.5 Z M 28.5,195.5 C 36.6322,200.074 44.2989,205.408 51.5,211.5C 50.3978,216.176 49.2311,220.843 48,225.5C 46.437,224.275 45.2703,222.775 44.5,221C 45.451,218.842 45.951,216.675 46,214.5C 39.5925,208.597 33.7592,202.263 28.5,195.5 Z"/></g>
<g><path style="opacity:0.992" fill="#e07a8c" d="M 277.5,365.5 C 276.094,365.973 275.427,366.973 275.5,368.5C 274.439,371.622 273.105,374.622 271.5,377.5C 267.357,383.768 263.19,390.101 259,396.5C 256.651,399.017 254.151,401.35 251.5,403.5C 244.895,395.248 238.561,386.915 232.5,378.5C 231.099,375.366 229.432,372.366 227.5,369.5C 227.573,367.973 226.906,366.973 225.5,366.5C 210.942,342.382 198.775,317.049 189,290.5C 181.648,270.73 178.981,250.397 181,229.5C 185.766,206.067 199.933,191.9 223.5,187C 239.518,183.739 255.518,183.739 271.5,187C 293.35,195.148 305.184,210.981 307,234.5C 308.473,253.706 307.14,272.706 303,291.5C 297.034,317.085 288.534,341.752 277.5,365.5 Z"/></g>
<g><path style="opacity:0.889" fill="#2d202f" d="M 139.5,190.5 C 149.5,191.33 155.667,196.663 158,206.5C 169.621,210.748 172.621,218.415 167,229.5C 159.953,240.387 150.62,243.387 139,238.5C 130.64,242.696 122.14,243.196 113.5,240C 111.586,238.587 110.253,236.753 109.5,234.5C 93.527,229.082 90.527,219.582 100.5,206C 103.107,203.895 106.107,203.062 109.5,203.5C 109.714,193.454 114.714,189.621 124.5,192C 126.838,192.837 129.172,193.67 131.5,194.5C 134.222,193.139 136.889,191.806 139.5,190.5 Z"/></g>
<g><path style="opacity:1" fill="#faf9fa" d="M 138.5,193.5 C 148.231,193.898 153.898,198.898 155.5,208.5C 151.464,209.02 148.297,211.02 146,214.5C 144.897,220.451 147.064,221.951 152.5,219C 155.099,216.254 157.433,213.421 159.5,210.5C 166.611,213.386 168.777,218.386 166,225.5C 161.891,232.778 155.724,237.111 147.5,238.5C 145.307,238.674 143.473,238.007 142,236.5C 143.03,234.053 143.863,231.386 144.5,228.5C 144.239,222.496 141.739,221.163 137,224.5C 136.859,228.589 136.692,232.589 136.5,236.5C 130.41,239.16 124.077,239.993 117.5,239C 115.36,238.027 113.693,236.527 112.5,234.5C 120.045,232.086 122.045,227.419 118.5,220.5C 114.52,217.574 111.686,218.574 110,223.5C 109.503,225.81 109.337,228.143 109.5,230.5C 100.066,229.324 96.2329,223.991 98,214.5C 100.478,208.022 104.978,205.355 111.5,206.5C 113.118,193.783 119.452,190.949 130.5,198C 126.5,202.333 126.5,206.667 130.5,211C 135.279,212.394 137.613,210.56 137.5,205.5C 137.186,202.708 136.186,200.208 134.5,198C 135.344,195.993 136.677,194.493 138.5,193.5 Z"/></g>
<g><path style="opacity:1" fill="#e8e7e8" d="M 131.5,199.5 C 135.895,202.38 136.395,205.714 133,209.5C 130.709,208.876 129.543,207.376 129.5,205C 129.758,202.991 130.425,201.157 131.5,199.5 Z"/></g>
<g><path style="opacity:1" fill="#35202f" d="M 241.5,197.5 C 258.104,196.385 271.771,202.052 282.5,214.5C 281.998,215.521 281.332,215.688 280.5,215C 269.651,203.773 256.317,198.606 240.5,199.5C 240.863,198.817 241.196,198.15 241.5,197.5 Z"/></g>
<g><path style="opacity:1" fill="#3f2128" d="M 416.5,205.5 C 416.567,206.959 416.234,208.292 415.5,209.5C 411.708,212.43 407.375,213.763 402.5,213.5C 402.5,212.5 402.5,211.5 402.5,210.5C 405.187,210.664 407.854,210.497 410.5,210C 412.022,207.695 414.022,206.195 416.5,205.5 Z"/></g>
<g><path style="opacity:1" fill="#ebeaeb" d="M 153.5,210.5 C 154.376,210.369 155.043,210.702 155.5,211.5C 154.207,215.853 151.54,217.519 147.5,216.5C 149.215,214.118 151.215,212.118 153.5,210.5 Z"/></g>
<g><path style="opacity:1" fill="#ecebec" d="M 113.5,221.5 C 118.829,222.615 119.829,225.449 116.5,230C 114.975,231.009 113.308,231.509 111.5,231.5C 111.152,227.915 111.819,224.582 113.5,221.5 Z"/></g>
<g><path style="opacity:1" fill="#e8e6e8" d="M 139.5,224.5 C 140.748,225.334 141.415,226.667 141.5,228.5C 140.576,235.088 139.576,235.088 138.5,228.5C 138.623,227.075 138.957,225.742 139.5,224.5 Z"/></g>
<g><path style="opacity:1" fill="#362030" d="M 290.5,225.5 C 292.017,225.511 293.184,226.177 294,227.5C 297.793,232.691 298.96,238.358 297.5,244.5C 296.532,237.606 294.199,231.272 290.5,225.5 Z"/></g>
<g><path style="opacity:1" fill="#321c27" d="M 419.5,228.5 C 419.5,228.833 419.5,229.167 419.5,229.5C 417.407,230.045 415.407,230.878 413.5,232C 410.773,232.818 408.106,232.652 405.5,231.5C 410.372,231.188 414.706,229.522 418.5,226.5C 419.298,226.957 419.631,227.624 419.5,228.5 Z"/></g>
<g><path style="opacity:0.823" fill="#201521" d="M 65.5,240.5 C 64.5041,240.414 63.6708,240.748 63,241.5C 61.4157,240.139 59.5824,239.472 57.5,239.5C 57.5,238.5 57.5,237.5 57.5,236.5C 61.3896,235.777 64.0563,237.11 65.5,240.5 Z"/></g>
<g><path style="opacity:0.828" fill="#231624" d="M 511.5,237.5 C 511.5,239.833 511.5,242.167 511.5,244.5C 505.857,259.46 499.357,274.127 492,288.5C 490.062,289.86 488.396,289.527 487,287.5C 485.92,285.004 484.586,282.67 483,280.5C 481.475,283.087 479.308,283.92 476.5,283C 474.145,277.736 472.478,272.236 471.5,266.5C 467.883,264.905 464.217,263.405 460.5,262C 458.085,259.091 458.751,256.757 462.5,255C 478.254,247.452 494.587,241.619 511.5,237.5 Z M 496.5,245.5 C 488.9,250.978 481.234,256.478 473.5,262C 469.596,262.106 465.929,261.106 462.5,259C 473.432,253.413 484.766,248.913 496.5,245.5 Z M 499.5,248.5 C 493.171,254.996 487.005,261.663 481,268.5C 480.502,270.527 480.669,272.527 481.5,274.5C 480.319,280.28 478.819,280.614 477,275.5C 476.111,271.848 475.778,268.182 476,264.5C 483.804,259.023 491.638,253.69 499.5,248.5 Z M 505.5,248.5 C 501.217,261.175 496.051,273.508 490,285.5C 486.9,280.537 485.233,275.204 485,269.5C 491.338,261.996 498.171,254.996 505.5,248.5 Z"/></g>
<g><path style="opacity:0.732" fill="#231626" d="M 65.5,240.5 C 69.1667,240.833 71.1667,242.833 71.5,246.5C 67.8333,246.167 65.8333,244.167 65.5,240.5 Z"/></g>
<g><path style="opacity:0.793" fill="#241625" d="M 19.5,242.5 C 20.5,242.5 21.5,242.5 22.5,242.5C 22.1924,244.924 22.5258,247.257 23.5,249.5C 25.2461,247.146 27.5794,246.146 30.5,246.5C 30.4386,248.592 29.4386,250.092 27.5,251C 28.448,251.483 29.448,251.649 30.5,251.5C 30.5,252.5 30.5,253.5 30.5,254.5C 28.8008,254.34 27.1341,254.506 25.5,255C 28.5335,256.737 29.0335,258.903 27,261.5C 22.8941,256.155 21.3941,257.155 22.5,264.5C 21.5,264.5 20.5,264.5 19.5,264.5C 19.6641,261.813 19.4974,259.146 19,256.5C 17.2552,257.956 15.4219,259.289 13.5,260.5C 12.5,260.167 11.8333,259.5 11.5,258.5C 12.6053,257.108 13.9386,255.941 15.5,255C 13.5273,254.505 11.5273,254.338 9.5,254.5C 9.5,253.5 9.5,252.5 9.5,251.5C 11.8568,251.663 14.1902,251.497 16.5,251C 14.393,249.736 13.393,247.903 13.5,245.5C 15.9032,245.393 17.7365,246.393 19,248.5C 19.4955,246.527 19.6621,244.527 19.5,242.5 Z"/></g>
<g><path style="opacity:1" fill="#362433" d="M 239.5,221.5 C 253.456,220.206 264.956,224.872 274,235.5C 281.653,249.051 281.319,262.384 273,275.5C 255.938,292.325 238.605,292.658 221,276.5C 209.757,259.377 211.257,243.543 225.5,229C 229.815,225.678 234.482,223.178 239.5,221.5 Z"/></g>
<g><path style="opacity:1" fill="#fcfcfc" d="M 240.5,223.5 C 258.261,222.449 270.428,230.116 277,246.5C 278.823,274.01 265.99,286.844 238.5,285C 221.732,278.643 214.232,266.476 216,248.5C 219.683,235.651 227.85,227.318 240.5,223.5 Z"/></g>
<g><path style="opacity:0.764" fill="#241726" d="M 71.5,247.5 C 74.8347,248.461 76.5014,250.794 76.5,254.5C 72.6837,253.91 71.0171,251.577 71.5,247.5 Z"/></g>
<g><path style="opacity:0.818" fill="#241625" d="M 74.5,255.5 C 75.675,255.281 76.675,255.614 77.5,256.5C 78.3742,258.747 78.7076,261.08 78.5,263.5C 77.5,263.5 76.5,263.5 75.5,263.5C 75.1667,260.833 74.8333,258.167 74.5,255.5 Z"/></g>
<g><path style="opacity:0.824" fill="#231625" d="M 125.5,259.5 C 126.833,259.5 128.167,259.5 129.5,259.5C 129.851,262.238 130.518,264.904 131.5,267.5C 134.437,268.803 137.103,270.47 139.5,272.5C 137.758,274.817 135.424,276.317 132.5,277C 130.669,280.198 128.502,283.032 126,285.5C 125.228,285.355 124.561,285.022 124,284.5C 123.178,282.212 122.511,279.878 122,277.5C 119.649,276.286 117.149,275.452 114.5,275C 113.14,273.062 113.473,271.396 115.5,270C 118,269.115 120.333,267.948 122.5,266.5C 123.312,264.055 124.312,261.722 125.5,259.5 Z M 126.5,264.5 C 127.031,268.213 129.031,270.88 132.5,272.5C 129.471,274.029 127.305,276.362 126,279.5C 125.654,277.782 125.154,276.115 124.5,274.5C 122.726,273.813 121.059,272.98 119.5,272C 124.096,271.571 126.43,269.071 126.5,264.5 Z"/></g>
<g><path style="opacity:0.88" fill="#231524" d="M 75.5,272.5 C 75.1961,271.85 74.8627,271.183 74.5,270.5C 74.9121,268.113 75.9121,266.113 77.5,264.5C 78.5,264.833 79.1667,265.5 79.5,266.5C 78.846,268.115 78.346,269.782 78,271.5C 77.3292,272.252 76.4959,272.586 75.5,272.5 Z"/></g>
<g><path style="opacity:0.795" fill="#241725" d="M 75.5,272.5 C 75.769,276.377 74.1023,278.544 70.5,279C 69.5494,278.282 69.3828,277.449 70,276.5C 71.451,274.536 73.2843,273.203 75.5,272.5 Z"/></g>
<g><path style="opacity:0.699" fill="#221624" d="M 41.5,274.5 C 43.1667,274.5 44.8333,274.5 46.5,274.5C 46.5,275.5 46.5,276.5 46.5,277.5C 44.3502,277.905 42.3502,278.405 40.5,279C 39.4186,277.289 39.752,275.789 41.5,274.5 Z"/></g>
<g><path style="opacity:0.813" fill="#231724" d="M 47.5,276.5 C 51.3773,276.231 53.5439,277.898 54,281.5C 53.2825,282.451 52.4491,282.617 51.5,282C 49.2542,280.743 47.9209,278.91 47.5,276.5 Z"/></g>
<g><path style="opacity:0.787" fill="#231624" d="M 66.5,278.5 C 67.9953,278.415 68.9953,279.081 69.5,280.5C 67.8816,282.316 65.8816,283.649 63.5,284.5C 63.1667,283.833 62.8333,283.167 62.5,282.5C 63.437,280.712 64.7703,279.379 66.5,278.5 Z"/></g>
<g><path style="opacity:0.789" fill="#231625" d="M 38.5,280.5 C 39.5,280.5 40.5,280.5 41.5,280.5C 42.1667,282.5 42.8333,284.5 43.5,286.5C 39.0917,286.938 37.4251,284.938 38.5,280.5 Z"/></g>
<g><path style="opacity:0.827" fill="#241626" d="M 54.5,282.5 C 56.7171,283.238 58.8837,283.571 61,283.5C 60.293,285.311 59.793,287.311 59.5,289.5C 54.9571,288.985 53.2905,286.652 54.5,282.5 Z"/></g>
<g><path style="opacity:0.826" fill="#241726" d="M 45.5,284.5 C 47.5273,284.338 49.5273,284.505 51.5,285C 52.8146,286.395 52.4812,287.395 50.5,288C 48.8333,288.667 47.1667,288.667 45.5,288C 44.3157,286.855 44.3157,285.688 45.5,284.5 Z"/></g>
<g><path style="opacity:0.744" fill="#231726" d="M 472.5,287.5 C 473.995,287.415 474.995,288.081 475.5,289.5C 474.101,292.054 472.101,293.72 469.5,294.5C 469.688,291.794 470.688,289.461 472.5,287.5 Z"/></g>
<g><path style="opacity:0.762" fill="#231624" d="M 58.5,290.5 C 59.5,290.5 60.5,290.5 61.5,290.5C 61.9926,292.806 62.3259,295.139 62.5,297.5C 61.325,297.719 60.325,297.386 59.5,296.5C 58.6518,294.591 58.3184,292.591 58.5,290.5 Z"/></g>
<g><path style="opacity:0.78" fill="#241826" d="M 467.5,295.5 C 468.5,295.5 469.5,295.5 470.5,295.5C 470.501,299.206 468.835,301.539 465.5,302.5C 465.394,299.921 466.061,297.588 467.5,295.5 Z"/></g>
<g><path style="opacity:0.781" fill="#231825" d="M 59.5,299.5 C 60.8333,299.5 62.1667,299.5 63.5,299.5C 63.3259,301.861 62.9926,304.194 62.5,306.5C 61.5,306.5 60.5,306.5 59.5,306.5C 59.5,304.167 59.5,301.833 59.5,299.5 Z"/></g>
<g><path style="opacity:0.987" fill="#b1729a" d="M 173.5,367.5 C 172.167,368.833 172.167,370.167 173.5,371.5C 173.5,374.167 173.5,376.833 173.5,379.5C 172.083,388.409 171.083,397.409 170.5,406.5C 169.566,407.568 169.232,408.901 169.5,410.5C 168.404,417.225 166.237,423.559 163,429.5C 159.624,426.617 156.124,423.951 152.5,421.5C 152.167,420.5 151.5,419.833 150.5,419.5C 147.129,416.129 143.463,413.129 139.5,410.5C 139.167,409.5 138.5,408.833 137.5,408.5C 128.758,399.092 119.758,390.092 110.5,381.5C 108.86,378.851 107.193,376.184 105.5,373.5C 105.5,371.5 104.5,370.5 102.5,370.5C 79.8853,331.397 90.8853,308.397 135.5,301.5C 147.184,301.426 156.017,306.426 162,316.5C 169.592,332.62 173.425,349.62 173.5,367.5 Z"/></g>
<g><path style="opacity:0.796" fill="#231724" d="M 464.5,303.5 C 465.995,303.415 466.995,304.081 467.5,305.5C 467.088,307.887 466.088,309.887 464.5,311.5C 463.271,308.801 463.271,306.135 464.5,303.5 Z"/></g>
<g><path style="opacity:0.872" fill="#231624" d="M 57.5,307.5 C 58.5,307.5 59.5,307.5 60.5,307.5C 60.8804,310.792 59.5471,313.125 56.5,314.5C 55.5,314.167 54.8333,313.5 54.5,312.5C 55.9524,311.06 56.9524,309.394 57.5,307.5 Z"/></g>
<g><path style="opacity:0.831" fill="#231625" d="M 420.5,308.5 C 429.702,309.232 432.535,313.899 429,322.5C 418.274,327.781 413.607,324.447 415,312.5C 416.5,310.531 418.333,309.198 420.5,308.5 Z M 419.5,312.5 C 426.61,311.904 428.61,314.737 425.5,321C 419.737,322.915 417.237,320.748 418,314.5C 418.717,313.956 419.217,313.289 419.5,312.5 Z"/></g>
<g><path style="opacity:1" fill="#2d1c2d" d="M 124.5,310.5 C 129.179,310.334 133.845,310.501 138.5,311C 142.083,311.458 145.083,312.958 147.5,315.5C 147.167,315.833 146.833,316.167 146.5,316.5C 138.315,312.037 129.815,311.37 121,314.5C 120.5,314.167 120,313.833 119.5,313.5C 121.145,312.304 122.811,311.304 124.5,310.5 Z"/></g>
<g><path style="opacity:0.769" fill="#211623" d="M 51.5,313.5 C 53.9728,313.604 54.6394,314.604 53.5,316.5C 51.2927,318.31 48.9593,318.643 46.5,317.5C 47.707,315.459 49.3737,314.126 51.5,313.5 Z"/></g>
<g><path style="opacity:0.748" fill="#231726" d="M 462.5,312.5 C 463.5,312.5 464.5,312.5 465.5,312.5C 464.5,323.167 463.5,323.167 462.5,312.5 Z"/></g>
<g><path style="opacity:0.764" fill="#251826" d="M 43.5,316.5 C 45.1042,317.287 45.7709,318.62 45.5,320.5C 43.139,320.674 40.8056,321.007 38.5,321.5C 38.3505,320.448 38.5172,319.448 39,318.5C 40.6225,317.901 42.1225,317.234 43.5,316.5 Z"/></g>
<g><path style="opacity:0.994" fill="#f1c001" d="M 395.5,365.5 C 394.89,366.391 394.557,367.391 394.5,368.5C 394.149,371.903 393.482,375.237 392.5,378.5C 388.477,388.221 384.143,397.888 379.5,407.5C 379.167,408.167 378.833,408.833 378.5,409.5C 377.087,412.661 375.42,415.661 373.5,418.5C 372.89,419.391 372.557,420.391 372.5,421.5C 367.758,428.638 362.758,435.638 357.5,442.5C 356.5,442.833 355.833,443.5 355.5,444.5C 353.495,446.334 351.328,448.001 349,449.5C 347.811,447.767 346.644,446.1 345.5,444.5C 345.672,443.508 345.338,442.842 344.5,442.5C 339.814,431.423 335.148,420.423 330.5,409.5C 330.5,408.833 330.5,408.167 330.5,407.5C 327.034,397.302 324.034,386.969 321.5,376.5C 320.701,373.57 320.368,370.57 320.5,367.5C 320.443,366.391 320.11,365.391 319.5,364.5C 317.264,328.569 333.931,313.402 369.5,319C 383.894,321.728 392.727,330.228 396,344.5C 396.675,351.528 396.508,358.528 395.5,365.5 Z"/></g>
<g><path style="opacity:0.811" fill="#231524" d="M 33.5,318.5 C 36.1662,318.066 37.3329,319.066 37,321.5C 34.6194,322.435 32.1194,322.768 29.5,322.5C 29.5,321.5 29.5,320.5 29.5,319.5C 31.099,319.768 32.4324,319.434 33.5,318.5 Z"/></g>
<g><path style="opacity:0.734" fill="#241827" d="M 21.5,320.5 C 30.4455,320.452 30.7789,321.785 22.5,324.5C 20.3576,323.563 20.0243,322.23 21.5,320.5 Z"/></g>
<g><path style="opacity:0.791" fill="#221523" d="M 14.5,322.5 C 16.1667,322.5 17.8333,322.5 19.5,322.5C 19.5,323.5 19.5,324.5 19.5,325.5C 17.323,325.586 15.323,326.253 13.5,327.5C 12.3162,325.533 12.6495,323.866 14.5,322.5 Z"/></g>
<g><path style="opacity:0.772" fill="#221523" d="M 462.5,321.5 C 463.675,321.281 464.675,321.614 465.5,322.5C 466.167,324.167 466.833,325.833 467.5,327.5C 466.311,328.429 464.978,328.762 463.5,328.5C 463.007,326.194 462.674,323.861 462.5,321.5 Z"/></g>
<g><path style="opacity:1" fill="#2d1c2d" d="M 153.5,319.5 C 158.38,321.333 160.714,324.666 160.5,329.5C 158.116,326.131 155.783,322.797 153.5,319.5 Z"/></g>
<g><path style="opacity:0.822" fill="#241625" d="M 8.5,326.5 C 9.5,326.5 10.5,326.5 11.5,326.5C 11.0305,329.308 9.69719,331.642 7.5,333.5C 6.5,333.167 5.83333,332.5 5.5,331.5C 6.25987,329.64 7.25987,327.973 8.5,326.5 Z"/></g>
<g><path style="opacity:0.745" fill="#211523" d="M 493.5,328.5 C 496.596,327.907 498.929,328.907 500.5,331.5C 500.192,332.308 499.692,332.975 499,333.5C 497.416,332.139 495.582,331.472 493.5,331.5C 493.5,330.5 493.5,329.5 493.5,328.5 Z"/></g>
<g><path style="opacity:0.772" fill="#241625" d="M 466.5,329.5 C 468.91,329.921 470.743,331.254 472,333.5C 472.617,334.449 472.451,335.282 471.5,336C 467.898,335.544 466.231,333.377 466.5,329.5 Z"/></g>
<g><path style="opacity:1" fill="#332224" d="M 359.5,326.5 C 369.893,326.196 377.893,330.362 383.5,339C 383.167,339.5 382.833,340 382.5,340.5C 376.37,332.951 368.703,328.284 359.5,326.5 Z"/></g>
<g><path style="opacity:0.758" fill="#231725" d="M 486.5,337.5 C 486.151,334.01 487.651,331.677 491,330.5C 492.23,331.275 492.563,332.275 492,333.5C 490.549,335.464 488.716,336.797 486.5,337.5 Z"/></g>
<g><path style="opacity:0.794" fill="#231725" d="M 3.5,334.5 C 4.5,334.5 5.5,334.5 6.5,334.5C 6.68155,336.591 6.34822,338.591 5.5,340.5C 4.67504,341.386 3.67504,341.719 2.5,341.5C 2.67412,339.139 3.00745,336.806 3.5,334.5 Z"/></g>
<g><path style="opacity:0.745" fill="#241726" d="M 497.5,341.5 C 497.993,339.194 498.326,336.861 498.5,334.5C 499.5,334.5 500.5,334.5 501.5,334.5C 501.662,336.527 501.495,338.527 501,340.5C 499.989,341.337 498.822,341.67 497.5,341.5 Z"/></g>
<g><path style="opacity:0.79" fill="#231824" d="M 473.5,335.5 C 476.935,336.192 478.935,338.192 479.5,341.5C 474.88,341.555 472.88,339.555 473.5,335.5 Z"/></g>
<g><path style="opacity:1" fill="#302231" d="M 127.5,324.5 C 147.892,324.048 156.059,333.715 152,353.5C 146.246,363.206 137.746,366.706 126.5,364C 113.461,356.545 110.294,346.045 117,332.5C 119.94,328.963 123.44,326.297 127.5,324.5 Z"/></g>
<g><path style="opacity:1" fill="#fcfcfc" d="M 128.5,326.5 C 147.935,326.755 154.768,336.088 149,354.5C 141.925,362.812 133.425,364.646 123.5,360C 113.343,350.275 113.009,340.275 122.5,330C 124.432,328.541 126.432,327.375 128.5,326.5 Z"/></g>
<g><path style="opacity:0.769" fill="#231726" d="M 486.5,337.5 C 486.905,339.65 487.405,341.65 488,343.5C 485.873,343.548 483.706,343.715 481.5,344C 480.542,340.097 482.209,337.93 486.5,337.5 Z"/></g>
<g><path style="opacity:0.77" fill="#221624" d="M 497.5,341.5 C 497.423,342.75 496.756,343.583 495.5,344C 493.527,344.495 491.527,344.662 489.5,344.5C 489.5,343.5 489.5,342.5 489.5,341.5C 492.266,340.768 494.932,340.768 497.5,341.5 Z"/></g>
<g><path style="opacity:0.906" fill="#231624" d="M 2.5,342.5 C 3.4959,342.414 4.32924,342.748 5,343.5C 5.49665,345.81 5.66331,348.143 5.5,350.5C 4.5,350.5 3.5,350.5 2.5,350.5C 2.5,347.833 2.5,345.167 2.5,342.5 Z"/></g>
<g><path style="opacity:0.77" fill="#221524" d="M 478.5,345.5 C 479.5,345.5 480.5,345.5 481.5,345.5C 481.501,349.206 479.835,351.539 476.5,352.5C 476.394,349.921 477.061,347.588 478.5,345.5 Z"/></g>
<g><path style="opacity:1" fill="#453023" d="M 387.5,346.5 C 391.531,350.218 392.365,354.552 390,359.5C 388.698,355.328 387.864,350.994 387.5,346.5 Z"/></g>
<g><path style="opacity:0.729" fill="#231524" d="M 2.5,351.5 C 3.5,351.5 4.5,351.5 5.5,351.5C 5.31845,353.591 5.65178,355.591 6.5,357.5C 5.71119,359.488 4.54452,359.821 3,358.5C 2.50335,356.19 2.33669,353.857 2.5,351.5 Z"/></g>
<g><path style="opacity:0.777" fill="#241626" d="M 475.5,353.5 C 476.756,353.461 477.756,353.961 478.5,355C 477.773,356.399 477.273,357.899 477,359.5C 475.989,360.337 474.822,360.67 473.5,360.5C 473.767,358.035 474.434,355.701 475.5,353.5 Z"/></g>
<g><path style="opacity:0.808" fill="#221623" d="M 4.5,360.5 C 5.5,360.5 6.5,360.5 7.5,360.5C 7.47199,362.582 8.13865,364.416 9.5,366C 7.72267,368.152 6.22267,367.985 5,365.5C 4.50649,363.866 4.33982,362.199 4.5,360.5 Z"/></g>
<g><path style="opacity:0.792" fill="#221624" d="M 13.5,366.5 C 14.673,363.246 17.0063,362.08 20.5,363C 20.9574,363.414 21.2907,363.914 21.5,364.5C 18.9645,366.477 16.2978,367.144 13.5,366.5 Z"/></g>
<g><path style="opacity:0.823" fill="#231724" d="M 22.5,362.5 C 24.5643,362.687 26.5643,363.187 28.5,364C 29.3366,365.011 29.67,366.178 29.5,367.5C 27.4357,367.313 25.4357,366.813 23.5,366C 22.6634,364.989 22.33,363.822 22.5,362.5 Z"/></g>
<g><path style="opacity:0.794" fill="#241725" d="M 473.5,362.5 C 474.5,362.5 475.5,362.5 476.5,362.5C 476.662,364.527 476.495,366.527 476,368.5C 474.989,369.337 473.822,369.67 472.5,369.5C 472.298,367.05 472.631,364.717 473.5,362.5 Z"/></g>
<g><path style="opacity:0.874" fill="#241726" d="M 319.5,364.5 C 320.11,365.391 320.443,366.391 320.5,367.5C 305.507,368.095 290.507,368.428 275.5,368.5C 275.427,366.973 276.094,365.973 277.5,365.5C 291.489,364.799 305.489,364.466 319.5,364.5 Z"/></g>
<g><path style="opacity:0.806" fill="#231725" d="M 395.5,365.5 C 404.194,366.002 412.861,366.836 421.5,368C 423.888,368.303 426.055,369.137 428,370.5C 430.875,386.371 432.875,402.371 434,418.5C 436.097,441.24 437.597,463.907 438.5,486.5C 332.569,490.507 226.569,492.007 120.5,491C 108.029,490.987 95.6957,489.82 83.5,487.5C 82.8076,486.975 82.3076,486.308 82,485.5C 83.0308,447.025 86.8641,408.858 93.5,371C 96.4816,370.502 99.4816,370.335 102.5,370.5C 104.5,370.5 105.5,371.5 105.5,373.5C 102.167,373.5 98.8333,373.5 95.5,373.5C 90.8474,408.055 87.1808,442.722 84.5,477.5C 84.3533,480.253 85.0199,482.753 86.5,485C 100.09,486.904 113.756,487.904 127.5,488C 230.209,488.682 332.876,487.182 435.5,483.5C 433.517,446.866 430.183,410.366 425.5,374C 424.008,372.115 422.008,371.115 419.5,371C 411.169,370.039 402.836,369.206 394.5,368.5C 394.557,367.391 394.89,366.391 395.5,365.5 Z"/></g>
<g><path style="opacity:0.812" fill="#241726" d="M 225.5,366.5 C 226.906,366.973 227.573,367.973 227.5,369.5C 209.478,369.905 191.478,370.571 173.5,371.5C 172.167,370.167 172.167,368.833 173.5,367.5C 190.838,367.344 208.171,367.011 225.5,366.5 Z"/></g>
<g><path style="opacity:0.812" fill="#241625" d="M 13.5,366.5 C 13.67,367.822 13.3366,368.989 12.5,370C 13.5,371 14.5,372 15.5,373C 14.9747,373.692 14.3081,374.192 13.5,374.5C 11.677,373.253 9.67702,372.586 7.5,372.5C 7.83333,368.833 9.83333,366.833 13.5,366.5 Z"/></g>
<g><path style="opacity:0.765" fill="#1f1521" d="M 28.5,368.5 C 31.9983,368.565 32.4983,369.899 30,372.5C 28.5557,374.155 26.7224,374.822 24.5,374.5C 25.203,372.127 26.5363,370.127 28.5,368.5 Z"/></g>
<g><path style="opacity:0.79" fill="#211622" d="M 473.5,371.5 C 474.5,371.5 475.5,371.5 476.5,371.5C 476.261,373.467 476.594,375.301 477.5,377C 476.437,378.188 475.103,378.688 473.5,378.5C 473.5,376.167 473.5,373.833 473.5,371.5 Z"/></g>
<g><path style="opacity:0.775" fill="#241726" d="M 16.5,372.5 C 18.8333,372.5 21.1667,372.5 23.5,372.5C 22.9245,376.473 20.7579,377.473 17,375.5C 16.5172,374.552 16.3505,373.552 16.5,372.5 Z"/></g>
<g><path style="opacity:0.762" fill="#241626" d="M 5.5,373.5 C 7.84748,375.03 8.01415,377.03 6,379.5C 4.81732,380.731 3.65066,380.731 2.5,379.5C 3.51328,377.473 4.51328,375.473 5.5,373.5 Z"/></g>
<g><path style="opacity:0.999" fill="#271f2d" d="M 306.5,376.5 C 306.5,386.833 306.5,397.167 306.5,407.5C 314.5,407.5 322.5,407.5 330.5,407.5C 330.5,408.167 330.5,408.833 330.5,409.5C 322.833,409.5 315.167,409.5 307.5,409.5C 307.5,420.5 307.5,431.5 307.5,442.5C 319.833,442.5 332.167,442.5 344.5,442.5C 345.338,442.842 345.672,443.508 345.5,444.5C 332.833,444.5 320.167,444.5 307.5,444.5C 307.5,455.167 307.5,465.833 307.5,476.5C 306.833,476.5 306.167,476.5 305.5,476.5C 305.5,465.833 305.5,455.167 305.5,444.5C 278.5,444.5 251.5,444.5 224.5,444.5C 224.975,455.33 224.475,465.997 223,476.5C 222.5,465.839 222.333,455.172 222.5,444.5C 198.339,443.502 174.006,443.169 149.5,443.5C 149.5,444.833 149.5,446.167 149.5,447.5C 148.469,456.808 147.636,466.141 147,475.5C 146.586,475.957 146.086,476.291 145.5,476.5C 145.167,475.167 144.833,473.833 144.5,472.5C 145.83,462.857 146.83,453.19 147.5,443.5C 132.167,443.5 116.833,443.5 101.5,443.5C 98.8333,442.5 98.8333,441.5 101.5,440.5C 116.991,441.496 132.658,441.83 148.5,441.5C 148.801,434.129 149.467,426.795 150.5,419.5C 151.5,419.833 152.167,420.5 152.5,421.5C 151.31,428.067 150.643,434.734 150.5,441.5C 174.833,441.5 199.167,441.5 223.5,441.5C 223.5,431.167 223.5,420.833 223.5,410.5C 206.005,409.668 188.338,409.168 170.5,409C 188.338,408.832 206.005,408.332 223.5,407.5C 223.5,397.833 223.5,388.167 223.5,378.5C 224.167,377.167 224.833,377.167 225.5,378.5C 225.5,388.167 225.5,397.833 225.5,407.5C 251.833,407.5 278.167,407.5 304.5,407.5C 304.784,397.448 304.45,387.448 303.5,377.5C 303.804,375.204 304.804,374.871 306.5,376.5 Z"/></g>
<g><path style="opacity:0.99" fill="#52aea4" d="M 306.5,376.5 C 311.5,376.5 316.5,376.5 321.5,376.5C 324.034,386.969 327.034,397.302 330.5,407.5C 322.5,407.5 314.5,407.5 306.5,407.5C 306.5,397.167 306.5,386.833 306.5,376.5 Z"/></g>
<g><path style="opacity:1" fill="#34252d" d="M 352.5,340.5 C 365.417,338.511 374.251,343.511 379,355.5C 379.789,374.044 370.956,382.21 352.5,380C 341.312,375.126 336.812,366.626 339,354.5C 341.687,347.981 346.187,343.314 352.5,340.5 Z"/></g>
<g><path style="opacity:1" fill="#fbfbfb" d="M 353.5,342.5 C 370.169,342 377.669,350 376,366.5C 370.666,377.395 362.166,380.895 350.5,377C 338.408,367.749 337.408,357.416 347.5,346C 349.727,345.059 351.727,343.892 353.5,342.5 Z"/></g>
<g><path style="opacity:0.996" fill="#51ada5" d="M 271.5,377.5 C 282.167,377.5 292.833,377.5 303.5,377.5C 304.45,387.448 304.784,397.448 304.5,407.5C 278.167,407.5 251.833,407.5 225.5,407.5C 225.5,397.833 225.5,388.167 225.5,378.5C 227.833,378.5 230.167,378.5 232.5,378.5C 238.561,386.915 244.895,395.248 251.5,403.5C 254.151,401.35 256.651,399.017 259,396.5C 263.19,390.101 267.357,383.768 271.5,377.5 Z"/></g>
<g><path style="opacity:0.989" fill="#51afa6" d="M 223.5,378.5 C 223.5,388.167 223.5,397.833 223.5,407.5C 205.659,407.83 187.992,407.497 170.5,406.5C 171.083,397.409 172.083,388.409 173.5,379.5C 190.169,379.265 206.836,378.932 223.5,378.5 Z"/></g>
<g><path style="opacity:0.986" fill="#50aea5" d="M 392.5,378.5 C 398.176,378.695 403.676,379.695 409,381.5C 413.217,412.057 416.384,442.724 418.5,473.5C 406.187,474.344 393.854,474.677 381.5,474.5C 379.779,464.558 378.445,454.558 377.5,444.5C 389.186,444.832 400.852,444.499 412.5,443.5C 400.518,442.501 388.518,442.168 376.5,442.5C 376.14,434.283 375.14,426.283 373.5,418.5C 375.42,415.661 377.087,412.661 378.5,409.5C 388.522,409.832 398.522,409.499 408.5,408.5C 398.856,407.502 389.19,407.168 379.5,407.5C 384.143,397.888 388.477,388.221 392.5,378.5 Z"/></g>
<g><path style="opacity:0.809" fill="#251726" d="M 475.5,379.5 C 476.496,379.414 477.329,379.748 478,380.5C 478.977,382.74 479.477,385.073 479.5,387.5C 478.325,387.719 477.325,387.386 476.5,386.5C 475.029,384.17 474.696,381.836 475.5,379.5 Z"/></g>
<g><path style="opacity:0.812" fill="#231524" d="M 2.5,381.5 C 3.87989,381.962 4.54656,382.962 4.5,384.5C 3.95374,386.135 3.62041,387.801 3.5,389.5C 2.5,389.5 1.5,389.5 0.5,389.5C 0.282622,386.579 0.949289,383.913 2.5,381.5 Z"/></g>
<g><path style="opacity:0.752" fill="#251726" d="M 483.5,395.5 C 480.165,394.539 478.499,392.206 478.5,388.5C 482.037,389.386 483.704,391.719 483.5,395.5 Z"/></g>
<g><path style="opacity:0.821" fill="#231625" d="M 53.5,389.5 C 62.6722,390.165 65.5055,394.831 62,403.5C 57.7063,407.483 53.373,407.483 49,403.5C 45.999,397.157 47.499,392.49 53.5,389.5 Z M 54.5,392.5 C 60.5894,393.701 61.9227,396.867 58.5,402C 53.0565,403.873 50.5565,402.04 51,396.5C 51.6897,394.65 52.8564,393.316 54.5,392.5 Z"/></g>
<g><path style="opacity:0.725" fill="#241626" d="M -0.5,390.5 C 0.5,390.5 1.5,390.5 2.5,390.5C 2.66331,392.857 2.49665,395.19 2,397.5C 1.32924,398.252 0.495904,398.586 -0.5,398.5C -0.5,395.833 -0.5,393.167 -0.5,390.5 Z"/></g>
<g><path style="opacity:0.737" fill="#231626" d="M 507.5,397.5 C 499.284,397.442 498.784,396.108 506,393.5C 508.5,394.158 509,395.491 507.5,397.5 Z"/></g>
<g><path style="opacity:0.78" fill="#241726" d="M 483.5,395.5 C 485.948,397.284 488.615,398.618 491.5,399.5C 491.83,402.109 493.33,403.776 496,404.5C 496.483,405.448 496.649,406.448 496.5,407.5C 493.309,407.238 490.642,405.905 488.5,403.5C 487.264,404.246 485.93,404.579 484.5,404.5C 484.33,403.178 484.663,402.011 485.5,401C 483.845,399.556 483.178,397.722 483.5,395.5 Z"/></g>
<g><path style="opacity:0.726" fill="#221624" d="M 495.5,395.5 C 496.833,395.5 498.167,395.5 499.5,395.5C 499.719,396.675 499.386,397.675 498.5,398.5C 496.833,399.167 495.167,399.833 493.5,400.5C 492.417,399.635 492.251,398.635 493,397.5C 493.995,396.934 494.828,396.267 495.5,395.5 Z"/></g>
<g><path style="opacity:0.737" fill="#211623" d="M 507.5,397.5 C 508.5,397.5 509.5,397.5 510.5,397.5C 510.501,401.206 508.835,403.539 505.5,404.5C 505.394,401.921 506.061,399.588 507.5,397.5 Z"/></g>
<g><path style="opacity:0.742" fill="#241626" d="M -0.5,399.5 C 0.495904,399.414 1.32924,399.748 2,400.5C 2.49665,402.81 2.66331,405.143 2.5,407.5C 1.5,407.5 0.5,407.5 -0.5,407.5C -0.5,404.833 -0.5,402.167 -0.5,399.5 Z"/></g>
<g><path style="opacity:0.72" fill="#231724" d="M 484.5,404.5 C 484.1,408.347 482.1,410.68 478.5,411.5C 478.427,407.28 480.427,404.946 484.5,404.5 Z"/></g>
<g><path style="opacity:0.792" fill="#241725" d="M 505.5,404.5 C 504.618,408.143 502.284,409.31 498.5,408C 498.043,407.586 497.709,407.086 497.5,406.5C 500.012,405.205 502.679,404.539 505.5,404.5 Z"/></g>
<g><path style="opacity:1" fill="#364f56" d="M 170.5,406.5 C 187.992,407.497 205.659,407.83 223.5,407.5C 206.005,408.332 188.338,408.832 170.5,409C 188.338,409.168 206.005,409.668 223.5,410.5C 205.5,410.5 187.5,410.5 169.5,410.5C 169.232,408.901 169.566,407.568 170.5,406.5 Z"/></g>
<g><path style="opacity:1" fill="#261927" d="M 379.5,407.5 C 389.19,407.168 398.856,407.502 408.5,408.5C 398.522,409.499 388.522,409.832 378.5,409.5C 378.833,408.833 379.167,408.167 379.5,407.5 Z"/></g>
<g><path style="opacity:0.748" fill="#241525" d="M 0.5,408.5 C 1.5,408.5 2.5,408.5 3.5,408.5C 3.62041,410.199 3.95374,411.865 4.5,413.5C 3.55164,417.419 2.38497,417.419 1,413.5C 0.506489,411.866 0.339822,410.199 0.5,408.5 Z"/></g>
<g><path style="opacity:1" fill="#282330" d="M 137.5,408.5 C 138.5,408.833 139.167,409.5 139.5,410.5C 128.48,410.832 117.48,410.499 106.5,409.5C 116.812,408.501 127.145,408.168 137.5,408.5 Z"/></g>
<g><path style="opacity:0.995" fill="#50ada5" d="M 110.5,381.5 C 119.758,390.092 128.758,399.092 137.5,408.5C 127.145,408.168 116.812,408.501 106.5,409.5C 117.48,410.499 128.48,410.832 139.5,410.5C 143.463,413.129 147.129,416.129 150.5,419.5C 149.467,426.795 148.801,434.129 148.5,441.5C 132.658,441.83 116.991,441.496 101.5,440.5C 103.753,421.476 106.253,402.476 109,383.5C 109.278,382.584 109.778,381.918 110.5,381.5 Z"/></g>
<g><path style="opacity:1" fill="#51aea5" d="M 169.5,410.5 C 187.5,410.5 205.5,410.5 223.5,410.5C 223.5,420.833 223.5,431.167 223.5,441.5C 199.167,441.5 174.833,441.5 150.5,441.5C 150.643,434.734 151.31,428.067 152.5,421.5C 156.124,423.951 159.624,426.617 163,429.5C 166.237,423.559 168.404,417.225 169.5,410.5 Z"/></g>
<g><path style="opacity:1" fill="#50aea5" d="M 304.5,418.5 C 304.5,426.167 304.5,433.833 304.5,441.5C 278.167,441.5 251.833,441.5 225.5,441.5C 225.5,430.833 225.5,420.167 225.5,409.5C 251.833,409.5 278.167,409.5 304.5,409.5C 304.5,412.5 304.5,415.5 304.5,418.5 Z"/></g>
<g><path style="opacity:1" fill="#51aea5" d="M 330.5,409.5 C 335.148,420.423 339.814,431.423 344.5,442.5C 332.167,442.5 319.833,442.5 307.5,442.5C 307.5,431.5 307.5,420.5 307.5,409.5C 315.167,409.5 322.833,409.5 330.5,409.5 Z"/></g>
<g><path style="opacity:0.769" fill="#231526" d="M 477.5,412.5 C 478.5,412.5 479.5,412.5 480.5,412.5C 480.007,414.806 479.674,417.139 479.5,419.5C 478.5,419.5 477.5,419.5 476.5,419.5C 476.298,417.05 476.631,414.717 477.5,412.5 Z"/></g>
<g><path style="opacity:0.752" fill="#241626" d="M 3.5,417.5 C 6.54091,417.379 8.20758,418.879 8.5,422C 8.36992,423.059 7.86992,423.892 7,424.5C 4.76211,422.691 3.59544,420.358 3.5,417.5 Z"/></g>
<g><path style="opacity:0.993" fill="#292430" d="M 373.5,418.5 C 375.14,426.283 376.14,434.283 376.5,442.5C 388.518,442.168 400.518,442.501 412.5,443.5C 400.852,444.499 389.186,444.832 377.5,444.5C 378.445,454.558 379.779,464.558 381.5,474.5C 380.5,477.167 379.5,477.167 378.5,474.5C 377.335,464.517 376.335,454.517 375.5,444.5C 368.833,444.5 362.167,444.5 355.5,444.5C 355.833,443.5 356.5,442.833 357.5,442.5C 363.167,442.5 368.833,442.5 374.5,442.5C 373.751,435.508 373.084,428.508 372.5,421.5C 372.557,420.391 372.89,419.391 373.5,418.5 Z"/></g>
<g><path style="opacity:0.77" fill="#231625" d="M 477.5,421.5 C 481.316,422.09 482.983,424.423 482.5,428.5C 479.165,427.539 477.499,425.206 477.5,421.5 Z"/></g>
<g><path style="opacity:0.696" fill="#251727" d="M 48.5,422.5 C 49.5,422.5 50.5,422.5 51.5,422.5C 51.5,423.833 51.5,425.167 51.5,426.5C 48.0136,426.705 47.0136,425.371 48.5,422.5 Z"/></g>
<g><path style="opacity:1" fill="#53afa3" d="M 372.5,421.5 C 373.084,428.508 373.751,435.508 374.5,442.5C 368.833,442.5 363.167,442.5 357.5,442.5C 362.758,435.638 367.758,428.638 372.5,421.5 Z"/></g>
<g><path style="opacity:0.719" fill="#231525" d="M 8.5,424.5 C 11.463,424.953 13.7963,426.453 15.5,429C 11.4562,430.631 9.12288,429.131 8.5,424.5 Z"/></g>
<g><path style="opacity:0.794" fill="#241725" d="M 44.5,427.5 C 45.9778,427.238 47.3112,427.571 48.5,428.5C 47.0802,431.966 44.7469,432.966 41.5,431.5C 42.5244,430.148 43.5244,428.815 44.5,427.5 Z"/></g>
<g><path style="opacity:0.789" fill="#241725" d="M 481.5,429.5 C 485.697,429.194 487.697,431.194 487.5,435.5C 484.192,434.935 482.192,432.935 481.5,429.5 Z"/></g>
<g><path style="opacity:0.794" fill="#211623" d="M 16.5,429.5 C 19.09,430.128 21.4234,431.295 23.5,433C 21.293,434.632 18.9597,434.632 16.5,433C 15.3157,431.855 15.3157,430.688 16.5,429.5 Z"/></g>
<g><path style="opacity:0.744" fill="#231726" d="M 37.5,431.5 C 38.5,431.5 39.5,431.5 40.5,431.5C 40.719,432.675 40.3857,433.675 39.5,434.5C 37.5914,435.348 35.5914,435.682 33.5,435.5C 33.5,434.5 33.5,433.5 33.5,432.5C 35.099,432.768 36.4324,432.434 37.5,431.5 Z"/></g>
<g><path style="opacity:0.746" fill="#241726" d="M 24.5,432.5 C 26.5273,432.338 28.5273,432.505 30.5,433C 31.3366,434.011 31.67,435.178 31.5,436.5C 29.139,436.326 26.8056,435.993 24.5,435.5C 24.5,434.5 24.5,433.5 24.5,432.5 Z"/></g>
<g><path style="opacity:0.739" fill="#221524" d="M 487.5,436.5 C 491.167,436.833 493.167,438.833 493.5,442.5C 489.833,442.167 487.833,440.167 487.5,436.5 Z"/></g>
<g><path style="opacity:1" fill="#3d6b6d" d="M 304.5,418.5 C 305.492,426.316 305.826,434.316 305.5,442.5C 278.661,442.831 251.995,442.498 225.5,441.5C 251.833,441.5 278.167,441.5 304.5,441.5C 304.5,433.833 304.5,426.167 304.5,418.5 Z"/></g>
<g><path style="opacity:1" fill="#3f7575" d="M 222.5,444.5 C 198.5,444.5 174.5,444.5 150.5,444.5C 150.737,445.791 150.404,446.791 149.5,447.5C 149.5,446.167 149.5,444.833 149.5,443.5C 174.006,443.169 198.339,443.502 222.5,444.5 Z"/></g>
<g><path style="opacity:0.721" fill="#221725" d="M 492.5,443.5 C 493.822,443.33 494.989,443.663 496,444.5C 496.707,446.081 497.54,447.581 498.5,449C 496.863,450.951 495.363,450.784 494,448.5C 492.991,446.975 492.491,445.308 492.5,443.5 Z"/></g>
<g><path style="opacity:0.992" fill="#50afa6" d="M 101.5,443.5 C 116.833,443.5 132.167,443.5 147.5,443.5C 146.83,453.19 145.83,462.857 144.5,472.5C 144.833,473.833 145.167,475.167 145.5,476.5C 146.086,476.291 146.586,475.957 147,475.5C 147.636,466.141 148.469,456.808 149.5,447.5C 150.404,446.791 150.737,445.791 150.5,444.5C 174.5,444.5 198.5,444.5 222.5,444.5C 222.333,455.172 222.5,465.839 223,476.5C 224.475,465.997 224.975,455.33 224.5,444.5C 251.5,444.5 278.5,444.5 305.5,444.5C 305.5,455.167 305.5,465.833 305.5,476.5C 247.169,477.449 188.836,477.616 130.5,477C 121.14,476.683 111.807,476.016 102.5,475C 101.584,474.626 100.75,474.126 100,473.5C 99.2823,463.42 99.7823,453.42 101.5,443.5 Z"/></g>
<g><path style="opacity:0.99" fill="#50aea5" d="M 345.5,444.5 C 346.644,446.1 347.811,447.767 349,449.5C 351.328,448.001 353.495,446.334 355.5,444.5C 362.167,444.5 368.833,444.5 375.5,444.5C 376.335,454.517 377.335,464.517 378.5,474.5C 354.84,475.264 331.173,475.93 307.5,476.5C 307.5,465.833 307.5,455.167 307.5,444.5C 320.167,444.5 332.833,444.5 345.5,444.5 Z"/></g>
<g><path style="opacity:0.801" fill="#241625" d="M 496.5,451.5 C 497.5,451.5 498.5,451.5 499.5,451.5C 499.62,453.199 499.954,454.865 500.5,456.5C 500.547,458 499.881,459 498.5,459.5C 496.946,457.067 496.28,454.4 496.5,451.5 Z"/></g>
<g><path style="opacity:0.699" fill="#241726" d="M 496.5,460.5 C 497.5,460.5 498.5,460.5 499.5,460.5C 499.682,462.591 499.348,464.591 498.5,466.5C 497.675,467.386 496.675,467.719 495.5,467.5C 495.674,465.139 496.007,462.806 496.5,460.5 Z"/></g>
<g><path style="opacity:0.776" fill="#221624" d="M 493.5,468.5 C 496.214,471.312 495.547,473.646 491.5,475.5C 490.692,475.192 490.025,474.692 489.5,474C 490.665,472.008 491.998,470.175 493.5,468.5 Z"/></g>
<g><path style="opacity:0.79" fill="#251526" d="M 451.5,475.5 C 455.167,475.833 457.167,477.833 457.5,481.5C 453.833,481.167 451.833,479.167 451.5,475.5 Z"/></g>
<g><path style="opacity:0.765" fill="#231625" d="M 486.5,475.5 C 488.103,475.312 489.437,475.812 490.5,477C 488.772,479.582 486.439,481.082 483.5,481.5C 483.615,479.053 484.615,477.053 486.5,475.5 Z"/></g>
<g><path style="opacity:0.716" fill="#241626" d="M 458.5,480.5 C 460.746,481.455 463.079,482.122 465.5,482.5C 465.5,483.5 465.5,484.5 465.5,485.5C 461.423,485.983 459.09,484.316 458.5,480.5 Z"/></g>
<g><path style="opacity:0.835" fill="#251626" d="M 479.5,480.5 C 480.5,480.5 481.5,480.5 482.5,480.5C 481.91,484.316 479.577,485.983 475.5,485.5C 475.281,484.325 475.614,483.325 476.5,482.5C 477.739,482.058 478.739,481.391 479.5,480.5 Z"/></g>
<g><path style="opacity:0.756" fill="#251627" d="M 467.5,483.5 C 469.833,483.5 472.167,483.5 474.5,483.5C 474.5,484.5 474.5,485.5 474.5,486.5C 471.753,486.813 469.086,486.48 466.5,485.5C 466.863,484.817 467.196,484.15 467.5,483.5 Z"/></g>
</svg>
