<?xml version="1.0" encoding="UTF-8"?>
<!DOCTYPE svg PUBLIC "-//W3C//DTD SVG 1.1//EN" "http://www.w3.org/Graphics/SVG/1.1/DTD/svg11.dtd">
<svg xmlns="http://www.w3.org/2000/svg" version="1.1" width="512px" height="512px" style="shape-rendering:geometricPrecision; text-rendering:geometricPrecision; image-rendering:optimizeQuality; fill-rule:evenodd; clip-rule:evenodd" xmlns:xlink="http://www.w3.org/1999/xlink">
<g><path style="opacity:0.987" fill="#000000" d="M 251.5,-0.5 C 254.833,-0.5 258.167,-0.5 261.5,-0.5C 343.076,38.2856 424.742,77.1189 506.5,116C 508.037,117.707 509.704,119.207 511.5,120.5C 511.5,137.833 511.5,155.167 511.5,172.5C 509.389,176.398 506.055,178.565 501.5,179C 337.833,179.667 174.167,179.667 10.5,179C 4.98447,177.316 1.31781,173.816 -0.5,168.5C -0.5,153.833 -0.5,139.167 -0.5,124.5C 0.51027,121.67 2.17694,119.17 4.5,117C 86.9243,77.7856 169.258,38.6189 251.5,-0.5 Z"/></g>
<g><path style="opacity:0.943" fill="#000000" d="M 51.5,203.5 C 85.8333,203.5 120.167,203.5 154.5,203.5C 154.5,212.5 154.5,221.5 154.5,230.5C 120.167,230.5 85.8333,230.5 51.5,230.5C 51.5,221.5 51.5,212.5 51.5,203.5 Z"/></g>
<g><path style="opacity:0.943" fill="#000000" d="M 204.5,203.5 C 238.833,203.5 273.167,203.5 307.5,203.5C 307.5,212.5 307.5,221.5 307.5,230.5C 273.167,230.5 238.833,230.5 204.5,230.5C 204.5,221.5 204.5,212.5 204.5,203.5 Z"/></g>
<g><path style="opacity:0.943" fill="#000000" d="M 358.5,203.5 C 392.833,203.5 427.167,203.5 461.5,203.5C 461.5,212.5 461.5,221.5 461.5,230.5C 427.167,230.5 392.833,230.5 358.5,230.5C 358.5,221.5 358.5,212.5 358.5,203.5 Z"/></g>
<g><path style="opacity:0.985" fill="#000000" d="M 76.5,255.5 C 93.8333,255.5 111.167,255.5 128.5,255.5C 128.5,298.167 128.5,340.833 128.5,383.5C 111.167,383.5 93.8333,383.5 76.5,383.5C 76.5,340.833 76.5,298.167 76.5,255.5 Z"/></g>
<g><path style="opacity:0.985" fill="#000000" d="M 230.5,255.5 C 247.833,255.5 265.167,255.5 282.5,255.5C 282.5,298.167 282.5,340.833 282.5,383.5C 265.167,383.5 247.833,383.5 230.5,383.5C 230.5,340.833 230.5,298.167 230.5,255.5 Z"/></g>
<g><path style="opacity:0.985" fill="#000000" d="M 383.5,255.5 C 400.833,255.5 418.167,255.5 435.5,255.5C 435.5,298.167 435.5,340.833 435.5,383.5C 418.167,383.5 400.833,383.5 383.5,383.5C 383.5,340.833 383.5,298.167 383.5,255.5 Z"/></g>
<g><path style="opacity:0.943" fill="#000000" d="M 51.5,408.5 C 85.8333,408.5 120.167,408.5 154.5,408.5C 154.5,417.5 154.5,426.5 154.5,435.5C 120.167,435.5 85.8333,435.5 51.5,435.5C 51.5,426.5 51.5,417.5 51.5,408.5 Z"/></g>
<g><path style="opacity:0.943" fill="#000000" d="M 204.5,408.5 C 238.833,408.5 273.167,408.5 307.5,408.5C 307.5,417.5 307.5,426.5 307.5,435.5C 273.167,435.5 238.833,435.5 204.5,435.5C 204.5,426.5 204.5,417.5 204.5,408.5 Z"/></g>
<g><path style="opacity:0.943" fill="#000000" d="M 358.5,408.5 C 392.833,408.5 427.167,408.5 461.5,408.5C 461.5,417.5 461.5,426.5 461.5,435.5C 427.167,435.5 392.833,435.5 358.5,435.5C 358.5,426.5 358.5,417.5 358.5,408.5 Z"/></g>
<g><path style="opacity:0.983" fill="#000000" d="M 511.5,466.5 C 511.5,479.5 511.5,492.5 511.5,505.5C 509.766,508.2 507.432,510.2 504.5,511.5C 338.833,511.5 173.167,511.5 7.5,511.5C 3.6957,509.034 1.02903,505.701 -0.5,501.5C -0.5,491.167 -0.5,480.833 -0.5,470.5C 1.31781,465.184 4.98447,461.684 10.5,460C 174.167,459.333 337.833,459.333 501.5,460C 506.055,460.435 509.389,462.602 511.5,466.5 Z"/></g>
</svg>
