<?xml version="1.0" encoding="UTF-8"?>
<!DOCTYPE svg PUBLIC "-//W3C//DTD SVG 1.1//EN" "http://www.w3.org/Graphics/SVG/1.1/DTD/svg11.dtd">
<svg xmlns="http://www.w3.org/2000/svg" version="1.1" width="979px" height="979px" style="shape-rendering:geometricPrecision; text-rendering:geometricPrecision; image-rendering:optimizeQuality; fill-rule:evenodd; clip-rule:evenodd" xmlns:xlink="http://www.w3.org/1999/xlink">
<g><path style="opacity:0.997" fill="#cccccc" d="M 978.5,460.5 C 978.5,479.833 978.5,499.167 978.5,518.5C 964.163,685.092 887.496,813.926 748.5,905C 675.439,949.93 596.105,974.43 510.5,978.5C 496.833,978.5 483.167,978.5 469.5,978.5C 315.934,968.478 192.1,903.145 98,782.5C 15.6608,668.125 -14.0059,541.125 9,401.5C 38.7787,255.677 116.945,144.177 243.5,67C 363.599,-0.179161 490.266,-16.1792 623.5,19C 752.706,57.8921 850.873,135.725 918,252.5C 953.3,317.554 973.467,386.887 978.5,460.5 Z"/></g>
<g><path style="opacity:1" fill="#fefefe" d="M 528.5,6.5 C 532.509,6.85831 536.509,7.35831 540.5,8C 539.383,9.89207 537.716,10.7254 535.5,10.5C 535.626,13.595 537.293,15.4283 540.5,16C 560.64,25.4066 580.974,34.2399 601.5,42.5C 600.189,43.2575 599.689,44.2575 600,45.5C 602.638,48.3167 605.638,50.65 609,52.5C 608.849,56.3731 610.016,59.7064 612.5,62.5C 609.615,63.8072 607.282,65.8072 605.5,68.5C 602.963,66.7326 600.297,65.2326 597.5,64C 596.606,59.432 593.939,57.7653 589.5,59C 588.131,61.2393 588.631,63.0726 591,64.5C 590.812,68.2323 592.312,71.0656 595.5,73C 603.648,72.8836 611.648,72.217 619.5,71C 626.075,71.7436 630.409,75.2436 632.5,81.5C 629.215,82.3236 625.882,82.8236 622.5,83C 619.773,85.2408 619.106,87.9074 620.5,91C 623.044,92.092 625.711,92.7586 628.5,93C 625.394,95.2159 623.727,98.2159 623.5,102C 617.749,101.471 612.083,100.305 606.5,98.5C 603.394,98.1028 601.061,99.2694 599.5,102C 594.833,102.333 590.167,102.667 585.5,103C 582.024,104.254 578.358,104.921 574.5,105C 573.328,105.419 572.328,106.085 571.5,107C 567.411,107.141 563.411,107.308 559.5,107.5C 561.024,109.858 563.024,111.691 565.5,113C 572.987,113.942 580.32,113.275 587.5,111C 588.646,110.355 589.646,109.522 590.5,108.5C 592.69,110.524 595.023,112.357 597.5,114C 594.771,114.005 592.771,115.171 591.5,117.5C 593.53,119.607 595.697,121.607 598,123.5C 600.004,132.854 602.004,142.187 604,151.5C 605.236,152.399 606.07,153.566 606.5,155C 606.15,156.257 605.483,156.591 604.5,156C 603.174,153.842 601.507,152.008 599.5,150.5C 598.779,152.686 598.113,154.853 597.5,157C 595.19,157.497 592.857,157.663 590.5,157.5C 590.662,163.157 592.495,168.157 596,172.5C 597.033,178.733 600.2,183.566 605.5,187C 593.613,189.987 582.28,188.654 571.5,183C 570.107,181.829 569.273,180.329 569,178.5C 568.5,167.172 568.333,155.838 568.5,144.5C 567.127,144.343 565.793,144.51 564.5,145C 562.081,149.093 559.248,152.927 556,156.5C 556.523,165.837 557.523,175.17 559,184.5C 560.865,188.028 563.699,190.528 567.5,192C 573.167,192.333 578.833,192.667 584.5,193C 586.923,193.732 588.09,195.232 588,197.5C 584.491,198.923 580.991,200.423 577.5,202C 573.8,206.035 569.8,209.702 565.5,213C 560.618,211.713 555.618,211.046 550.5,211C 549.483,212.049 549.316,213.216 550,214.5C 551.731,218.373 553.898,222.04 556.5,225.5C 555.667,225.833 554.833,226.167 554,226.5C 543.968,218.236 532.468,212.736 519.5,210C 514.404,206.942 509.404,203.609 504.5,200C 496.037,198.368 488.37,200.035 481.5,205C 469.302,208.527 458.802,215.027 450,224.5C 449.312,225.332 449.479,225.998 450.5,226.5C 452.5,225.5 454.5,224.5 456.5,223.5C 456.833,223.833 457.167,224.167 457.5,224.5C 450.665,230.171 444.665,236.671 439.5,244C 431.906,247.935 424.573,252.268 417.5,257C 414.567,259.264 412.4,262.098 411,265.5C 409.604,270.581 408.771,275.747 408.5,281C 409.872,294.52 416.205,297.187 427.5,289C 428.833,288.333 430.167,288.333 431.5,289C 432.435,291.381 432.768,293.881 432.5,296.5C 425.792,295.274 420.292,297.274 416,302.5C 414.021,308.674 412.688,315.007 412,321.5C 411.5,322 411,322.5 410.5,323C 405.614,324.224 400.614,324.891 395.5,325C 392.462,327.703 389.795,330.703 387.5,334C 384.125,337.36 380.125,339.026 375.5,339C 376.333,338.167 377.167,337.333 378,336.5C 378.667,331.833 378.667,327.167 378,322.5C 375.523,314.906 373.357,307.239 371.5,299.5C 371.667,298.167 371.833,296.833 372,295.5C 374.243,292.926 376.076,290.092 377.5,287C 376.637,284.638 374.97,283.138 372.5,282.5C 375.167,279.5 377.833,276.5 380.5,273.5C 380,272.119 379,271.453 377.5,271.5C 372.946,273.528 368.28,275.195 363.5,276.5C 358.884,273.692 355.051,274.692 352,279.5C 350.872,281.345 350.372,283.345 350.5,285.5C 351.552,285.351 352.552,285.517 353.5,286C 349.099,286.798 348.432,288.798 351.5,292C 351.355,292.772 351.022,293.439 350.5,294C 342.974,295.191 335.807,297.358 329,300.5C 326.996,303.475 325.996,306.808 326,310.5C 324,311.833 322,313.167 320,314.5C 317.753,321.104 320.253,324.104 327.5,323.5C 333.75,323.524 339.416,321.858 344.5,318.5C 345.76,315.283 347.093,312.116 348.5,309C 349.416,308.626 350.25,308.126 351,307.5C 352.694,312.689 354.694,312.689 357,307.5C 358.578,313.764 356.078,316.264 349.5,315C 348.736,317.069 348.236,319.236 348,321.5C 345.241,321.957 343.407,323.457 342.5,326C 343.156,327.909 343.656,329.742 344,331.5C 340.639,334.263 336.805,336.097 332.5,337C 331.643,337.689 330.977,338.522 330.5,339.5C 343.967,340.479 357.3,342.313 370.5,345C 367.056,347.056 363.389,348.556 359.5,349.5C 357.215,348.386 355.048,347.053 353,345.5C 350.943,346.723 348.777,347.723 346.5,348.5C 347.428,349.768 347.595,351.101 347,352.5C 345.004,350.941 342.671,350.274 340,350.5C 334.064,349.436 332.064,351.77 334,357.5C 342.988,367.007 344.988,378.007 340,390.5C 337.749,394.126 334.582,395.293 330.5,394C 322.614,391.099 314.947,387.765 307.5,384C 302.055,382.781 297.222,383.948 293,387.5C 292.798,392.989 291.798,398.322 290,403.5C 287.252,408.666 284.252,413.666 281,418.5C 280.667,422.5 280.333,426.5 280,430.5C 278.097,432.441 277.264,434.774 277.5,437.5C 292.415,438.804 295.581,445.804 287,458.5C 279.29,462.272 271.79,466.439 264.5,471C 259.151,476.024 255.984,482.19 255,489.5C 254.167,490.333 253.333,491.167 252.5,492C 245.443,495.211 238.11,497.544 230.5,499C 228.595,500.815 226.928,502.815 225.5,505C 217.374,506.628 212.541,511.462 211,519.5C 196.76,528.968 188.927,542.301 187.5,559.5C 188.577,560.956 189.577,562.789 190.5,565C 190.333,566.167 190.167,567.333 190,568.5C 189.902,570.619 189.069,572.286 187.5,573.5C 186.833,571.5 186.167,569.5 185.5,567.5C 184.043,571.546 184.377,575.379 186.5,579C 184.627,583.919 182.127,588.419 179,592.5C 178.214,600.861 177.548,609.194 177,617.5C 182.608,626.772 188.608,635.772 195,644.5C 195.704,646.278 196.204,648.112 196.5,650C 195.388,652.076 194.888,654.243 195,656.5C 205.411,666.907 215.078,677.907 224,689.5C 227.21,693.187 231.044,696.021 235.5,698C 250.071,697.814 263.738,701.147 276.5,708C 286.173,707.945 295.839,707.445 305.5,706.5C 311.868,706.577 318.201,707.077 324.5,708C 326.081,708.707 327.581,709.54 329,710.5C 331.876,716.423 335.376,721.923 339.5,727C 346.421,728.219 353.421,728.886 360.5,729C 361.624,729.249 362.624,729.749 363.5,730.5C 360.453,731.875 359.12,734.208 359.5,737.5C 362.755,737.986 365.422,736.986 367.5,734.5C 369.695,736.059 370.695,738.226 370.5,741C 367.942,747.623 366.109,754.456 365,761.5C 363.989,762.337 362.822,762.67 361.5,762.5C 361.884,766.604 363.384,770.271 366,773.5C 373.705,781.537 381.039,789.87 388,798.5C 393.653,807.462 397.319,817.129 399,827.5C 402.156,832.113 403.822,837.113 404,842.5C 394.062,850.346 390.062,860.346 392,872.5C 395.843,878.853 400.177,884.853 405,890.5C 406.202,892.677 406.702,895.011 406.5,897.5C 407.833,897.5 409.167,897.5 410.5,897.5C 410.559,900.731 412.059,903.065 415,904.5C 417.906,909.31 420.573,914.31 423,919.5C 428.563,924.363 434.396,928.863 440.5,933C 443,935.5 445.5,938 448,940.5C 448.093,943.007 448.926,945.174 450.5,947C 472.225,947.991 493.892,947.324 515.5,945C 530.823,940.088 544.99,932.922 558,923.5C 559.455,920.088 561.288,916.921 563.5,914C 568.971,911.285 574.638,908.951 580.5,907C 582.916,903.588 584.249,899.754 584.5,895.5C 583.161,892.312 582.661,888.978 583,885.5C 592.74,878.105 603.24,871.938 614.5,867C 619.938,863.398 624.938,859.232 629.5,854.5C 630.665,845.184 630.832,835.851 630,826.5C 626.026,824.708 623.86,821.708 623.5,817.5C 624.612,814.087 625.612,810.587 626.5,807C 626.079,803.82 625.079,800.82 623.5,798C 625.422,796.581 626.755,794.747 627.5,792.5C 627.272,790.603 626.272,789.27 624.5,788.5C 628.757,782.321 633.257,776.321 638,770.5C 655.366,752.802 672.366,734.802 689,716.5C 692.841,710.822 696.174,704.822 699,698.5C 704.216,686.082 709.383,673.748 714.5,661.5C 712.424,657.77 711.257,653.77 711,649.5C 710.275,648.941 709.442,648.608 708.5,648.5C 705.348,650.794 702.015,652.961 698.5,655C 688.539,659.096 678.873,663.762 669.5,669C 665.07,671.27 660.403,671.937 655.5,671C 650.636,660.134 642.969,651.801 632.5,646C 629.992,643.31 627.992,640.31 626.5,637C 624.527,636.505 622.527,636.338 620.5,636.5C 620.719,640.527 619.552,641.194 617,638.5C 616.493,637.004 616.993,635.837 618.5,635C 615.541,630.249 612.707,625.416 610,620.5C 607.297,617.462 604.297,614.795 601,612.5C 599.713,604.35 597.046,596.683 593,589.5C 590.819,586.786 588.153,584.786 585,583.5C 584.489,577.145 581.823,571.812 577,567.5C 574.412,563.326 572.079,558.993 570,554.5C 568.834,547.156 571.334,545.656 577.5,550C 581.877,554.043 585.044,558.876 587,564.5C 589.374,566.539 591.374,568.872 593,571.5C 595.837,574.871 599.171,577.538 603,579.5C 606.771,586.138 609.771,593.138 612,600.5C 613.938,603.106 616.438,604.939 619.5,606C 624.258,612.762 629.758,618.929 636,624.5C 635.069,626.004 634.402,627.671 634,629.5C 636.272,630.24 638.272,630.24 640,629.5C 641.484,639.953 645.317,649.453 651.5,658C 654.5,658.667 657.5,658.667 660.5,658C 679.612,647.358 697.445,634.858 714,620.5C 715.002,616.836 716.836,613.669 719.5,611C 724.084,607.41 728.917,604.243 734,601.5C 734.422,596.581 736.922,593.248 741.5,591.5C 742.216,587.273 744.383,583.939 748,581.5C 749.073,577.916 749.74,574.25 750,570.5C 752.148,569.023 753.482,567.023 754,564.5C 755.438,558.215 756.105,551.882 756,545.5C 750.23,539.91 743.397,537.743 735.5,539C 730.471,535.442 728.304,530.609 729,524.5C 731.928,526.038 735.094,526.704 738.5,526.5C 746.264,525.779 753.931,524.612 761.5,523C 769.865,517.236 778.698,512.402 788,508.5C 792.943,512.401 798.443,515.567 804.5,518C 805.743,519.154 806.743,520.488 807.5,522C 811.729,523.115 815.729,524.781 819.5,527C 824.5,527.333 829.5,527.667 834.5,528C 838.282,533.766 841.115,539.933 843,546.5C 853.832,562.16 864.165,578.16 874,594.5C 875.864,597.207 878.364,598.041 881.5,597C 883.934,593.155 886.267,589.321 888.5,585.5C 889.086,585.709 889.586,586.043 890,586.5C 890.786,591.22 891.786,595.886 893,600.5C 894.523,602.62 896.356,602.953 898.5,601.5C 904.528,594.252 905.028,586.585 900,578.5C 897.333,575.167 894.667,571.833 892,568.5C 889.606,556.87 887.439,545.203 885.5,533.5C 887.029,528.099 888.862,522.766 891,517.5C 893.486,500.402 896.486,483.402 900,466.5C 902.781,458.271 906.115,450.271 910,442.5C 910.561,441.978 911.228,441.645 912,441.5C 917.612,445.441 922.945,449.774 928,454.5C 929.583,459.339 931.083,464.172 932.5,469C 934.108,469.658 935.275,469.158 936,467.5C 937.489,462.543 938.822,457.543 940,452.5C 946.534,468.636 951.201,485.302 954,502.5C 957.786,508.408 960.786,514.742 963,521.5C 964.108,525.086 964.608,528.753 964.5,532.5C 962.09,531.937 959.757,531.437 957.5,531C 952.626,533.846 950.459,538.013 951,543.5C 953.265,545.722 955.432,548.055 957.5,550.5C 955.959,552.204 954.625,554.037 953.5,556C 958.879,562.591 962.212,570.091 963.5,578.5C 964.675,578.281 965.675,578.614 966.5,579.5C 937.051,720.355 861.718,828.855 740.5,905C 616.023,976.621 484.69,992.621 346.5,953C 232.504,915.967 143.338,847.133 79,746.5C 75.5542,733.884 71.7209,721.384 67.5,709C 70.7021,704.769 73.5354,700.269 76,695.5C 77.0338,687.578 76.0338,679.911 73,672.5C 61.5362,650.91 49.5362,629.577 37,608.5C 25.8079,582.312 19.4745,554.978 18,526.5C 14.9982,514.155 11.9982,501.822 9,489.5C 6.4271,454.792 8.76043,420.458 16,386.5C 29.289,326.427 53.1224,270.927 87.5,220C 90.1667,219.667 92.8333,219.333 95.5,219C 103.003,212.422 111.003,206.589 119.5,201.5C 121.568,204.146 122.901,207.146 123.5,210.5C 126.154,205.681 129.987,202.015 135,199.5C 137.638,200.917 139.472,203.084 140.5,206C 141.5,206.333 142.5,206.667 143.5,207C 141.089,208.955 138.589,210.789 136,212.5C 134.991,214.025 134.491,215.692 134.5,217.5C 138.844,217.339 142.511,218.839 145.5,222C 148.146,222.497 150.813,222.664 153.5,222.5C 153.744,219.737 155.077,217.571 157.5,216C 154.881,216.083 152.214,216.25 149.5,216.5C 153.091,211.928 155.257,206.595 156,200.5C 159.651,198.664 163.151,196.664 166.5,194.5C 169.072,192.364 170.239,189.697 170,186.5C 162.973,180.278 164.473,178.778 174.5,182C 175.576,183.726 175.743,185.559 175,187.5C 171.889,191.371 170.222,195.705 170,200.5C 172.612,197.611 174.445,194.278 175.5,190.5C 176.318,193.107 176.818,195.774 177,198.5C 177.833,199.333 178.667,200.167 179.5,201C 188.477,202.053 188.81,204.387 180.5,208C 176.943,209.408 173.276,210.408 169.5,211C 167.382,213.142 164.882,214.642 162,215.5C 162.909,220.089 163.742,224.756 164.5,229.5C 162.833,229.5 161.167,229.5 159.5,229.5C 159.167,232.5 160.5,233.833 163.5,233.5C 163.414,235.677 162.747,237.677 161.5,239.5C 161.808,240.308 162.308,240.975 163,241.5C 165.846,239.743 168.512,237.743 171,235.5C 173.251,231.575 175.917,227.908 179,224.5C 177.903,216.85 181.07,211.683 188.5,209C 189.227,207.601 189.727,206.101 190,204.5C 191.388,205.554 192.888,205.72 194.5,205C 200.444,201.285 204.611,196.118 207,189.5C 208,188.833 209,188.167 210,187.5C 211.806,182.554 214.139,177.888 217,173.5C 226.868,163.963 237.035,154.797 247.5,146C 243.129,145.828 238.796,145.328 234.5,144.5C 235,143.5 235.5,142.5 236,141.5C 241.149,137.015 246.816,133.348 253,130.5C 256.298,126.2 259.965,122.2 264,118.5C 264.606,115.287 265.773,112.287 267.5,109.5C 262.224,109.419 257.224,110.919 252.5,114C 248.886,114.945 245.219,115.612 241.5,116C 232.964,124.845 222.63,128.511 210.5,127C 205.775,131.036 200.442,133.369 194.5,134C 203.228,127.608 212.228,121.608 221.5,116C 234.943,99.4358 251.276,86.4358 270.5,77C 274.5,76.3333 278.5,76.3333 282.5,77C 286.606,79.3721 290.272,82.2055 293.5,85.5C 290.553,86.3214 287.553,86.8214 284.5,87C 282.981,88.3513 281.648,89.8513 280.5,91.5C 282.82,93.8249 282.32,95.8249 279,97.5C 278.312,98.3317 278.479,98.9984 279.5,99.5C 284.16,97.5053 288.494,95.0053 292.5,92C 301.846,91.3991 311.179,91.0657 320.5,91C 317.956,92.092 315.289,92.7586 312.5,93C 309.853,95.6566 306.853,97.8232 303.5,99.5C 302.526,101.743 302.192,104.076 302.5,106.5C 301.5,106.5 300.5,106.5 299.5,106.5C 299.557,102.867 298.557,102.7 296.5,106C 292.68,106.342 291.014,104.509 291.5,100.5C 284.492,101.001 279.992,104.668 278,111.5C 269.615,118.213 263.115,126.38 258.5,136C 258.667,136.5 258.833,137 259,137.5C 261,135.403 263.166,134.403 265.5,134.5C 265.023,135.478 264.357,136.311 263.5,137C 266.621,137.138 269.621,136.471 272.5,135C 278.011,130.819 283.511,126.652 289,122.5C 289.5,122.667 290,122.833 290.5,123C 287.5,126 284.5,129 281.5,132C 286.257,132.81 290.924,132.476 295.5,131C 300.446,126.054 305.446,121.054 310.5,116C 321.319,113.098 330.319,107.431 337.5,99C 346.479,95.0152 353.979,89.1818 360,81.5C 361.582,79.3763 361.749,77.2096 360.5,75C 348.589,73.2483 337.589,75.5816 327.5,82C 325.559,82.7429 323.726,82.5762 322,81.5C 331.373,74.2519 342.373,70.2519 355,69.5C 358.672,70.0033 362.006,71.3367 365,73.5C 366.895,71.8179 369.062,71.3179 371.5,72C 368.943,74.8922 366.776,78.0589 365,81.5C 364.289,83.3668 364.789,84.8668 366.5,86C 379.661,85.2846 392.328,87.2846 404.5,92C 406,94.1667 405.5,95.6667 403,96.5C 392.321,89.889 381.987,90.5557 372,98.5C 372.476,103.713 370.642,107.88 366.5,111C 358.152,116.175 349.485,120.842 340.5,125C 337.833,126.333 335.833,128.333 334.5,131C 328.948,130.45 324.282,132.117 320.5,136C 321.833,137.333 323.167,138.667 324.5,140C 324.167,140.333 323.833,140.667 323.5,141C 319.5,140.667 315.5,140.333 311.5,140C 290.959,149.21 274.792,163.377 263,182.5C 262.573,187.59 261.74,192.59 260.5,197.5C 261.873,197.657 263.207,197.49 264.5,197C 274.114,191.022 284.448,187.022 295.5,185C 297.305,182.597 299.638,180.93 302.5,180C 313.326,180.812 324.159,180.645 335,179.5C 344.449,181.063 353.949,181.563 363.5,181C 366.424,180.317 368.758,178.817 370.5,176.5C 371.446,176.987 372.446,177.32 373.5,177.5C 378.658,172.51 383.991,167.677 389.5,163C 394.93,160.288 400.597,158.121 406.5,156.5C 407.029,153.743 408.029,151.243 409.5,149C 414.06,147.471 418.227,145.304 422,142.5C 423.505,140.702 423.672,138.868 422.5,137C 430.196,133.159 438.196,129.825 446.5,127C 447.694,124.342 446.694,123.176 443.5,123.5C 443.773,121.549 443.107,120.049 441.5,119C 447.609,112.77 446.609,108.103 438.5,105C 431.83,103.832 426.163,100.832 421.5,96C 428.293,94.8856 431.793,91.0523 432,84.5C 430.846,83.2567 429.512,82.2567 428,81.5C 427.667,79.8333 427.333,78.1667 427,76.5C 424.304,75.8102 422.137,74.3102 420.5,72C 416.5,71.6667 412.5,71.3333 408.5,71C 408.043,70.586 407.709,70.086 407.5,69.5C 404.215,68.6764 400.882,68.1764 397.5,68C 396.643,67.3109 395.977,66.4776 395.5,65.5C 396.752,63.9991 397.752,62.3325 398.5,60.5C 395.92,59.4512 393.254,58.7845 390.5,58.5C 390.67,59.8221 390.337,60.9887 389.5,62C 386.361,62.4881 383.528,63.6548 381,65.5C 378.546,63.8799 376.713,61.7133 375.5,59C 372.5,58.3333 369.5,58.3333 366.5,59C 361.432,60.8773 356.432,62.7106 351.5,64.5C 348.729,64.9184 346.729,63.9184 345.5,61.5C 349.154,59.1958 353.154,57.6958 357.5,57C 366.124,55.8686 374.79,55.202 383.5,55C 384.199,51.9197 385.866,49.5863 388.5,48C 398.387,46.48 408.054,44.1467 417.5,41C 417.957,40.586 418.291,40.086 418.5,39.5C 416.869,37.7026 414.869,36.5359 412.5,36C 408.5,35.3333 404.5,35.3333 400.5,36C 397.972,37.3159 397.972,38.4826 400.5,39.5C 399.333,39.8333 398.167,40.1667 397,40.5C 392.842,39.9269 388.676,39.4269 384.5,39C 383.007,37.8438 383.174,37.0104 385,36.5C 401.453,32.6714 417.619,27.838 433.5,22C 453.47,20.7696 473.47,20.103 493.5,20C 501.595,19.8713 509.262,18.2046 516.5,15C 514.519,14.3946 514.185,13.3946 515.5,12C 518.167,11.6667 520.833,11.3333 523.5,11C 525.986,10.3444 527.653,8.84445 528.5,6.5 Z"/></g>
<g><path style="opacity:1" fill="#fbfbfb" d="M 582.5,13.5 C 582.5,13.8333 582.5,14.1667 582.5,14.5C 581.078,14.7496 580.078,15.583 579.5,17C 576.167,17.6667 572.833,17.6667 569.5,17C 561.188,14.1177 552.855,11.451 544.5,9C 557.239,9.6755 569.905,11.1755 582.5,13.5 Z"/></g>
<g><path style="opacity:1" fill="#f2f2f2" d="M 582.5,13.5 C 608.174,18.3351 633.174,25.5017 657.5,35C 632.818,27.079 607.818,20.2457 582.5,14.5C 582.5,14.1667 582.5,13.8333 582.5,13.5 Z"/></g>
<g><path style="opacity:1" fill="#f3f3f3" d="M 373.5,28.5 C 376.166,28.0658 377.333,29.0658 377,31.5C 373.403,33.0661 372.237,32.0661 373.5,28.5 Z"/></g>
<g><path style="opacity:1" fill="#f9f9f9" d="M 655.5,42.5 C 655.917,41.8761 656.584,41.5427 657.5,41.5C 663.733,42.9111 669.733,44.9111 675.5,47.5C 668.487,47.687 661.821,46.0204 655.5,42.5 Z"/></g>
<g><path style="opacity:1" fill="#f8f8f8" d="M 361.5,41.5 C 364.012,42.2162 364.012,43.2162 361.5,44.5C 360.438,43.5754 360.438,42.5754 361.5,41.5 Z"/></g>
<g><path style="opacity:1" fill="#d0d0d0" d="M 419.5,45.5 C 421.5,45.5 423.5,45.5 425.5,45.5C 425.915,48.368 424.915,50.5347 422.5,52C 416.419,52.1378 410.419,52.8044 404.5,54C 405.672,54.4186 406.672,55.0853 407.5,56C 402.839,56.8342 398.172,57.1675 393.5,57C 395.395,54.1935 397.728,51.8602 400.5,50C 406.826,47.9873 413.159,46.4873 419.5,45.5 Z"/></g>
<g><path style="opacity:1" fill="#fdfdfd" d="M 680.5,50.5 C 680.56,49.9569 680.893,49.6236 681.5,49.5C 690.285,52.7796 699.285,55.2796 708.5,57C 733.171,69.3266 756.504,83.66 778.5,100C 774.556,98.1135 770.223,97.1135 765.5,97C 765.507,95.4173 765.174,93.7506 764.5,92C 757.24,87.9586 749.574,86.1252 741.5,86.5C 742.48,87.9814 743.647,89.3147 745,90.5C 744.466,95.4669 746.633,97.4669 751.5,96.5C 751.5,97.8333 751.5,99.1667 751.5,100.5C 747.758,99.1185 744.424,96.9518 741.5,94C 723.808,83.4902 706.808,71.9902 690.5,59.5C 688.401,55.1189 685.067,52.1189 680.5,50.5 Z"/></g>
<g><path style="opacity:1" fill="#fafafa" d="M 346.5,53.5 C 348.225,53.8425 348.725,54.8425 348,56.5C 344.276,57.6125 341.109,59.6125 338.5,62.5C 337.417,61.635 337.251,60.635 338,59.5C 340.736,57.2481 343.569,55.2481 346.5,53.5 Z"/></g>
<g><path style="opacity:1" fill="#d1d1d1" d="M 414.5,55.5 C 416.527,55.3379 418.527,55.5045 420.5,56C 421.841,57.8265 421.341,58.9931 419,59.5C 416.479,59.1778 414.979,57.8445 414.5,55.5 Z"/></g>
<g><path style="opacity:1" fill="#d0d0d0" d="M 404.5,63.5 C 409.179,63.3342 413.845,63.5008 418.5,64C 414.445,66.3403 410.111,67.007 405.5,66C 404.748,65.3292 404.414,64.4959 404.5,63.5 Z"/></g>
<g><path style="opacity:1" fill="#e5e5e5" d="M 416.5,67.5 C 418.103,67.3118 419.437,67.8118 420.5,69C 418.537,69.8442 417.204,69.3442 416.5,67.5 Z"/></g>
<g><path style="opacity:1" fill="#f8f8f8" d="M 391.5,69.5 C 394.564,69.1437 397.231,69.9771 399.5,72C 395.558,76.5353 393.391,76.7019 393,72.5C 387.671,76.1004 387.171,75.1004 391.5,69.5 Z"/></g>
<g><path style="opacity:1" fill="#f5f5f5" d="M 322.5,90.5 C 324.346,90.2222 325.68,90.8888 326.5,92.5C 324.167,93.9415 322.834,93.2748 322.5,90.5 Z"/></g>
<g><path style="opacity:1" fill="#d1d1d1" d="M 272.5,95.5 C 273.833,95.5 275.167,95.5 276.5,95.5C 276.5,96.5 276.5,97.5 276.5,98.5C 275.127,98.6567 273.793,98.49 272.5,98C 271.402,97.2303 271.402,96.397 272.5,95.5 Z"/></g>
<g><path style="opacity:1" fill="#d1d1d1" d="M 265.5,103.5 C 267.549,103.706 267.883,104.539 266.5,106C 261.517,106.831 261.183,105.998 265.5,103.5 Z"/></g>
<g><path style="opacity:1" fill="#e7e7e7" d="M 788.5,111.5 C 788.897,110.475 789.563,110.308 790.5,111C 792.007,111.837 792.507,113.004 792,114.5C 790.961,113.29 789.794,112.29 788.5,111.5 Z"/></g>
<g><path style="opacity:1" fill="#fafafa" d="M 185.5,117.5 C 186.995,117.415 187.995,118.081 188.5,119.5C 184.89,126.111 179.89,131.445 173.5,135.5C 172.592,134.21 172.759,132.877 174,131.5C 178.046,126.96 181.879,122.293 185.5,117.5 Z"/></g>
<g><path style="opacity:1" fill="#d4d4d4" d="M 226.5,118.5 C 227.552,118.351 228.552,118.517 229.5,119C 227.366,121.098 225.032,121.931 222.5,121.5C 223.901,120.479 225.235,119.479 226.5,118.5 Z"/></g>
<g><path style="opacity:1" fill="#cecece" d="M 528.5,127.5 C 532.589,128.4 536.589,128.734 540.5,128.5C 539.294,130.149 537.961,131.649 536.5,133C 537.167,133.667 537.833,134.333 538.5,135C 535.975,135.896 533.808,135.396 532,133.5C 531.89,135.848 530.723,137.348 528.5,138C 525.183,138.498 521.85,138.665 518.5,138.5C 520.574,131.239 523.241,130.906 526.5,137.5C 527.086,137.291 527.586,136.957 528,136.5C 528.498,133.518 528.665,130.518 528.5,127.5 Z"/></g>
<g><path style="opacity:1" fill="#f3f3f3" d="M 163.5,136.5 C 168.448,136.621 168.448,137.621 163.5,139.5C 162.833,139.167 162.167,138.833 161.5,138.5C 162.243,137.818 162.909,137.151 163.5,136.5 Z"/></g>
<g><path style="opacity:1" fill="#d0d0d0" d="M 590.5,135.5 C 592.296,136.793 593.963,138.293 595.5,140C 592.814,139.823 591.148,138.323 590.5,135.5 Z"/></g>
<g><path style="opacity:1" fill="#fbfbfb" d="M 796.5,115.5 C 823.973,136.807 848.306,161.307 869.5,189C 867.369,188.602 865.369,187.602 863.5,186C 850.136,174.313 838.636,161.146 829,146.5C 820.348,136.945 810.848,128.445 800.5,121C 798.536,119.549 797.203,117.716 796.5,115.5 Z"/></g>
<g><path style="opacity:1" fill="#d8d8d8" d="M 255.5,139.5 C 259.276,139.469 259.443,140.136 256,141.5C 254.316,141.317 254.15,140.65 255.5,139.5 Z"/></g>
<g><path style="opacity:1" fill="#cdcdcd" d="M 481.5,141.5 C 485.548,141.395 489.548,141.728 493.5,142.5C 493.027,146.638 490.693,148.638 486.5,148.5C 486.893,151.785 488.226,154.618 490.5,157C 490.355,157.772 490.022,158.439 489.5,159C 487.866,159.494 486.199,159.66 484.5,159.5C 484.799,157.396 484.466,155.396 483.5,153.5C 480.678,157.128 477.845,160.795 475,164.5C 472.675,159.473 470.508,154.473 468.5,149.5C 468.326,147.307 468.993,145.473 470.5,144C 473.833,143.667 477.167,143.333 480.5,143C 481.056,142.617 481.389,142.117 481.5,141.5 Z"/></g>
<g><path style="opacity:1" fill="#f6f6f6" d="M 155.5,149.5 C 156.675,149.281 157.675,149.614 158.5,150.5C 156.958,153.796 154.624,155.129 151.5,154.5C 152.857,152.814 154.19,151.148 155.5,149.5 Z"/></g>
<g><path style="opacity:1" fill="#f3f3f3" d="M 602.5,159.5 C 604.332,160.14 604.665,161.14 603.5,162.5C 602.614,161.675 602.281,160.675 602.5,159.5 Z"/></g>
<g><path style="opacity:1" fill="#fcfcfc" d="M 137.5,164.5 C 139.978,166.483 140.145,168.816 138,171.5C 137.503,169.19 137.337,166.857 137.5,164.5 Z"/></g>
<g><path style="opacity:1" fill="#f9f9f9" d="M 143.5,167.5 C 144.494,171.068 143.661,174.401 141,177.5C 140.696,173.908 141.529,170.574 143.5,167.5 Z"/></g>
<g><path style="opacity:1" fill="#cdcdcd" d="M 342.5,199.5 C 344.833,199.5 347.167,199.5 349.5,199.5C 349.5,201.5 349.5,203.5 349.5,205.5C 354.959,206.031 360.292,207.198 365.5,209C 368.712,217.841 365.379,222.508 355.5,223C 350.167,223.667 344.833,223.667 339.5,223C 338.417,219.752 336.417,217.252 333.5,215.5C 335.437,214.256 337.104,212.756 338.5,211C 337.728,209.779 336.728,208.779 335.5,208C 337.435,206.762 339.435,206.262 341.5,206.5C 340.073,203.884 340.406,201.551 342.5,199.5 Z"/></g>
<g><path style="opacity:1" fill="#fcfcfc" d="M 888.5,214.5 C 903.912,235.321 916.746,257.655 927,281.5C 920.667,270.833 914.333,260.167 908,249.5C 902.962,243.297 897.462,237.63 891.5,232.5C 889.958,233.747 888.458,233.747 887,232.5C 883.171,224.837 878.837,217.504 874,210.5C 873.667,213.5 873.333,216.5 873,219.5C 869.379,217.602 866.212,215.102 863.5,212C 867.395,207.884 867.395,203.717 863.5,199.5C 863.833,199.167 864.167,198.833 864.5,198.5C 872.887,204.379 880.554,211.213 887.5,219C 888.5,219.667 889.5,219.667 890.5,219C 889.418,217.67 888.751,216.17 888.5,214.5 Z"/></g>
<g><path style="opacity:1" fill="#d0d0d0" d="M 562.5,202.5 C 567.159,202.015 568.492,203.848 566.5,208C 561.165,208.536 559.832,206.702 562.5,202.5 Z"/></g>
<g><path style="opacity:1" fill="#fafafa" d="M 860.5,203.5 C 863.157,204.479 863.823,206.146 862.5,208.5C 861.05,207.15 860.383,205.484 860.5,203.5 Z"/></g>
<g><path style="opacity:1" fill="#f4f4f4" d="M 888.5,214.5 C 886.243,213.438 885.077,211.772 885,209.5C 886.802,210.789 887.969,212.456 888.5,214.5 Z"/></g>
<g><path style="opacity:1" fill="#fdfdfd" d="M 529.5,234.5 C 534.511,234.334 539.511,234.501 544.5,235C 545.554,236.388 545.72,237.888 545,239.5C 540.587,240.632 536.087,240.799 531.5,240C 529.845,238.556 529.178,236.722 529.5,234.5 Z"/></g>
<g><path style="opacity:1" fill="#fbfbfb" d="M 486.5,241.5 C 488.977,241.051 490.977,241.717 492.5,243.5C 489.762,248.537 485.762,252.204 480.5,254.5C 480.167,254 479.833,253.5 479.5,253C 480.717,250.632 481.551,248.132 482,245.5C 483.667,244.267 485.167,242.933 486.5,241.5 Z"/></g>
<g><path style="opacity:1" fill="#d0d0d0" d="M 372.5,246.5 C 374.81,248.278 374.644,250.278 372,252.5C 371.322,250.402 371.489,248.402 372.5,246.5 Z"/></g>
<g><path style="opacity:1" fill="#f3f3f3" d="M 532.5,245.5 C 534.264,244.288 535.93,244.621 537.5,246.5C 535.808,247.201 534.142,246.867 532.5,245.5 Z"/></g>
<g><path style="opacity:1" fill="#fdfdfd" d="M 474.5,256.5 C 475.5,256.5 476.5,256.5 477.5,256.5C 477.666,262.509 477.499,268.509 477,274.5C 473.264,278.012 469.264,278.345 465,275.5C 464.333,272.833 464.333,270.167 465,267.5C 468.002,263.666 471.169,260 474.5,256.5 Z"/></g>
<g><path style="opacity:1" fill="#d1d1d1" d="M 387.5,264.5 C 388.376,264.369 389.043,264.702 389.5,265.5C 385.408,272.136 384.742,271.803 387.5,264.5 Z"/></g>
<g><path style="opacity:1" fill="#fbfbfb" d="M 518.5,270.5 C 523.221,270.726 525.721,273.059 526,277.5C 520.649,278.661 518.149,276.327 518.5,270.5 Z"/></g>
<g><path style="opacity:1" fill="#f2f2f2" d="M 507.5,280.5 C 508.368,282.48 507.701,284.147 505.5,285.5C 505.167,285.167 504.833,284.833 504.5,284.5C 505.524,283.148 506.524,281.815 507.5,280.5 Z"/></g>
<g><path style="opacity:1" fill="#fdfdfd" d="M 471.5,285.5 C 477.176,285.334 482.843,285.501 488.5,286C 484.749,287.415 481.916,289.915 480,293.5C 477.071,302.019 474.738,310.685 473,319.5C 470.942,321.068 468.775,322.402 466.5,323.5C 464.255,322.076 461.755,321.41 459,321.5C 454.479,323.079 449.813,324.412 445,325.5C 441.737,326.068 440.237,324.734 440.5,321.5C 437.5,321.833 436.167,320.5 436.5,317.5C 440.823,317.547 444.823,318.547 448.5,320.5C 447.771,318.007 446.937,315.674 446,313.5C 455.509,313.439 459.676,308.772 458.5,299.5C 460.006,294.495 463.34,291.329 468.5,290C 470.141,288.871 471.141,287.371 471.5,285.5 Z"/></g>
<g><path style="opacity:1" fill="#fbfbfb" d="M 552.5,287.5 C 554.912,287.694 555.912,289.027 555.5,291.5C 552.046,291.733 551.046,290.4 552.5,287.5 Z"/></g>
<g><path style="opacity:1" fill="#fbfbfb" d="M 486.5,296.5 C 491,296.164 492.833,298.164 492,302.5C 489.211,305.129 487.211,304.462 486,300.5C 485.421,299.072 485.588,297.738 486.5,296.5 Z"/></g>
<g><path style="opacity:1" fill="#cfcfcf" d="M 467.5,296.5 C 468.161,299.901 466.995,302.901 464,305.5C 463.333,303.833 463.333,302.167 464,300.5C 465.376,299.295 466.542,297.962 467.5,296.5 Z"/></g>
<g><path style="opacity:1" fill="#f7f7f7" d="M 433.5,302.5 C 435.377,303.659 435.877,305.326 435,307.5C 429.095,310.447 428.428,309.78 433,305.5C 433.483,304.552 433.649,303.552 433.5,302.5 Z"/></g>
<g><path style="opacity:1" fill="#fdfdfd" d="M 974.5,512.5 C 973.833,514.5 973.167,516.5 972.5,518.5C 972.667,510.129 969.5,503.463 963,498.5C 961.742,492.834 959.742,487.501 957,482.5C 955.821,476.199 955.487,469.865 956,463.5C 958.277,459.453 959.944,459.786 961,464.5C 964.167,465 966,466.833 966.5,470C 967.167,470.667 967.833,470.667 968.5,470C 970.339,451.695 969.172,433.529 965,415.5C 962.292,407.783 957.626,401.449 951,396.5C 946.966,387.59 944.966,378.257 945,368.5C 947.253,373.596 948.92,378.929 950,384.5C 950.71,385.973 951.876,386.64 953.5,386.5C 953.665,383.15 953.498,379.817 953,376.5C 951.245,368.326 948.912,360.326 946,352.5C 944.741,337.201 941.574,322.367 936.5,308C 937.784,307.316 938.951,307.483 940,308.5C 965.858,373.98 977.358,441.98 974.5,512.5 Z"/></g>
<g><path style="opacity:1" fill="#d3d3d3" d="M 185.5,373.5 C 187.346,373.222 188.68,373.889 189.5,375.5C 187.167,376.941 185.834,376.275 185.5,373.5 Z"/></g>
<g><path style="opacity:1" fill="#fefefe" d="M 632.5,382.5 C 634.527,382.338 636.527,382.505 638.5,383C 642.94,388.042 647.94,392.375 653.5,396C 656.641,397.621 659.808,399.121 663,400.5C 662.874,404.462 664.208,407.795 667,410.5C 670.8,420.587 674.966,430.42 679.5,440C 678.37,444.164 675.537,445.997 671,445.5C 666.476,444.492 661.976,443.325 657.5,442C 656.809,440.933 656.309,439.766 656,438.5C 655.333,433.5 655.333,428.5 656,423.5C 657.011,422.663 658.178,422.33 659.5,422.5C 659.5,421.167 659.5,419.833 659.5,418.5C 651.112,414.966 643.612,409.966 637,403.5C 633.586,396.755 632.086,389.755 632.5,382.5 Z"/></g>
<g><path style="opacity:1" fill="#fbfbfb" d="M 564.5,387.5 C 566.527,387.338 568.527,387.505 570.5,388C 571.747,389.494 571.747,390.994 570.5,392.5C 567.562,393.575 564.562,393.741 561.5,393C 560.549,392.282 560.383,391.449 561,390.5C 562.145,389.364 563.312,388.364 564.5,387.5 Z"/></g>
<g><path style="opacity:1" fill="#d7d7d7" d="M 195.5,387.5 C 199.31,388.754 199.31,389.754 195.5,390.5C 195.5,389.5 195.5,388.5 195.5,387.5 Z"/></g>
<g><path style="opacity:1" fill="#fefefe" d="M 533.5,391.5 C 535.882,393.046 538.549,393.713 541.5,393.5C 540.38,398.058 542.047,400.891 546.5,402C 547.201,406.084 549.535,407.417 553.5,406C 556.433,404.729 559.099,403.062 561.5,401C 564.167,400.333 566.833,400.333 569.5,401C 580.19,405.092 590.024,410.592 599,417.5C 599.268,423.255 596.435,426.755 590.5,428C 584.833,428.667 579.167,428.667 573.5,428C 565.605,422.975 557.272,422.308 548.5,426C 544.5,428 540.5,430 536.5,432C 531.833,432.667 527.167,432.667 522.5,432C 517.824,427.583 517.324,422.75 521,417.5C 521.112,412.277 523.112,407.944 527,404.5C 528.126,399.582 530.292,395.248 533.5,391.5 Z"/></g>
<g><path style="opacity:1" fill="#fefefe" d="M 424.5,397.5 C 425.5,397.5 426.5,397.5 427.5,397.5C 427.687,399.564 428.187,401.564 429,403.5C 433.38,408.211 437.38,413.211 441,418.5C 445.024,420.848 449.191,423.015 453.5,425C 458.988,429.81 461.154,435.977 460,443.5C 461.223,447.615 463.223,451.282 466,454.5C 465.84,457.509 467.007,459.675 469.5,461C 467.789,462.133 467.289,463.633 468,465.5C 471.79,466.29 473.79,468.624 474,472.5C 477.268,475.018 480.601,477.351 484,479.5C 484.772,479.355 485.439,479.022 486,478.5C 486.333,475.5 486.667,472.5 487,469.5C 492.308,466.266 494.808,467.932 494.5,474.5C 496.199,474.34 497.866,474.506 499.5,475C 500.155,476.487 501.155,477.653 502.5,478.5C 504.229,475.661 505.063,472.661 505,469.5C 501.111,466.046 497.944,462.046 495.5,457.5C 490.944,455.613 487.277,452.613 484.5,448.5C 490.542,447.647 495.542,444.981 499.5,440.5C 499.833,441 500.167,441.5 500.5,442C 498.571,443.694 497.571,445.861 497.5,448.5C 499.722,448.822 501.556,448.155 503,446.5C 503.333,446.833 503.667,447.167 504,447.5C 504.333,452.167 504.667,456.833 505,461.5C 506.205,462.071 507.372,462.738 508.5,463.5C 507.675,464.386 506.675,464.719 505.5,464.5C 505.5,465.5 505.5,466.5 505.5,467.5C 507.5,467.5 509.5,467.5 511.5,467.5C 511.34,469.199 511.506,470.866 512,472.5C 514.36,475.36 516.527,478.36 518.5,481.5C 520.348,479.267 522.015,476.934 523.5,474.5C 527.325,478.366 531.658,479.199 536.5,477C 537.191,475.933 537.691,474.766 538,473.5C 538.725,472.941 539.558,472.608 540.5,472.5C 544.672,474.694 549.005,476.361 553.5,477.5C 557.448,477.359 560.781,475.859 563.5,473C 566.956,471.877 569.79,472.71 572,475.5C 572.86,489.009 570.693,502.009 565.5,514.5C 563.636,515.993 561.47,516.66 559,516.5C 549.633,514.201 540.799,515.367 532.5,520C 528.167,520.667 523.833,520.667 519.5,520C 509.176,518.502 499.176,515.835 489.5,512C 480.628,504.845 471.628,504.678 462.5,511.5C 460.412,515.178 459.245,519.178 459,523.5C 458.592,525.41 457.425,526.41 455.5,526.5C 447.838,523.003 440.172,519.503 432.5,516C 430.453,509.622 426.119,505.622 419.5,504C 412.458,503.631 406.792,500.631 402.5,495C 393.526,491.304 394.193,488.471 404.5,486.5C 404.833,485.667 405.167,484.833 405.5,484C 404.31,480.452 402.977,476.952 401.5,473.5C 401.703,471.792 402.536,470.459 404,469.5C 404.494,467.866 404.66,466.199 404.5,464.5C 401.401,464.908 399.067,463.741 397.5,461C 379.777,460.628 362.111,459.461 344.5,457.5C 335.101,457.807 325.934,459.474 317,462.5C 311.992,460.451 306.825,458.951 301.5,458C 298.232,452.904 299.732,450.404 306,450.5C 317.249,453.716 326.916,451.049 335,442.5C 336.45,434.096 340.95,427.929 348.5,424C 352.419,422.138 356.419,420.471 360.5,419C 361.667,417.833 362.833,416.667 364,415.5C 364.045,412.666 364.879,410.166 366.5,408C 371.617,408.422 376.617,409.589 381.5,411.5C 386.482,410.511 391.148,408.677 395.5,406C 401.352,403.96 404.685,405.96 405.5,412C 404.844,413.909 404.344,415.742 404,417.5C 408.877,420.554 412.877,424.554 416,429.5C 423.692,434.348 430.359,440.348 436,447.5C 437.323,451.771 436.156,454.938 432.5,457C 427.483,457.59 422.483,457.423 417.5,456.5C 410.263,457.51 409.596,460.343 415.5,465C 420.432,467.714 425.265,470.547 430,473.5C 430.945,473.095 431.612,472.428 432,471.5C 432.333,469.167 432.667,466.833 433,464.5C 441.987,462.201 446.32,456.535 446,447.5C 443.489,444.715 443.989,443.548 447.5,444C 449.641,445.308 451.641,446.808 453.5,448.5C 456.257,446.912 457.09,444.579 456,441.5C 450.446,437.279 445.612,432.446 441.5,427C 434.253,425.418 430.086,420.918 429,413.5C 427,410.833 425,408.167 423,405.5C 422.282,402.593 422.782,399.926 424.5,397.5 Z"/></g>
<g><path style="opacity:1" fill="#cdcdcd" d="M 399.5,415.5 C 400.725,416.152 401.392,417.319 401.5,419C 400.937,422.188 400.271,425.355 399.5,428.5C 401.209,434.951 400.542,441.118 397.5,447C 395.26,447.977 392.927,448.477 390.5,448.5C 390.334,442.824 390.501,437.157 391,431.5C 392.333,430.833 393.667,430.167 395,429.5C 395.333,425.833 395.667,422.167 396,418.5C 397.145,417.364 398.312,416.364 399.5,415.5 Z"/></g>
<g><path style="opacity:1" fill="#d1d1d1" d="M 355.5,432.5 C 359.82,432.959 360.487,434.792 357.5,438C 356.207,438.49 354.873,438.657 353.5,438.5C 353.253,436.142 353.919,434.142 355.5,432.5 Z"/></g>
<g><path style="opacity:1" fill="#d6d6d6" d="M 363.5,432.5 C 366.012,433.216 366.012,434.216 363.5,435.5C 362.438,434.575 362.438,433.575 363.5,432.5 Z"/></g>
<g><path style="opacity:1" fill="#f9f9f9" d="M 517.5,437.5 C 519.346,437.222 520.68,437.889 521.5,439.5C 519.167,440.941 517.834,440.275 517.5,437.5 Z"/></g>
<g><path style="opacity:1" fill="#d9d9d9" d="M 219.5,449.5 C 220.995,449.415 221.995,450.081 222.5,451.5C 220.604,452.639 219.604,451.973 219.5,449.5 Z"/></g>
<g><path style="opacity:1" fill="#f4f4f4" d="M 495.5,465.5 C 496.496,465.414 497.329,465.748 498,466.5C 498.667,468.167 498.667,469.833 498,471.5C 495.961,470.022 495.128,468.022 495.5,465.5 Z"/></g>
<g><path style="opacity:1" fill="#d2d2d2" d="M 424.5,477.5 C 426.983,477.73 427.483,478.397 426,479.5C 424.97,479.164 424.47,478.497 424.5,477.5 Z"/></g>
<g><path style="opacity:1" fill="#cecece" d="M 561.5,479.5 C 562.376,479.369 563.043,479.702 563.5,480.5C 562.127,482.49 561.127,484.657 560.5,487C 557.15,489.208 553.65,489.708 550,488.5C 549.835,486.322 550.668,484.489 552.5,483C 556.005,482.881 559.005,481.714 561.5,479.5 Z"/></g>
<g><path style="opacity:1" fill="#d1d1d1" d="M 512.5,481.5 C 513.844,483.185 513.677,484.852 512,486.5C 511.36,484.735 511.527,483.068 512.5,481.5 Z"/></g>
<g><path style="opacity:1" fill="#d1d1d1" d="M 488.5,484.5 C 495.117,484.325 501.45,485.491 507.5,488C 501.602,489.862 495.602,489.862 489.5,488C 488.663,486.989 488.33,485.822 488.5,484.5 Z"/></g>
<g><path style="opacity:1" fill="#cfcfcf" d="M 209.5,486.5 C 211.355,486.272 212.188,486.939 212,488.5C 209.192,489.86 208.359,489.193 209.5,486.5 Z"/></g>
<g><path style="opacity:1" fill="#d0d0d0" d="M 229.5,488.5 C 230.103,491.971 228.436,494.305 224.5,495.5C 223.479,494.998 223.312,494.332 224,493.5C 225.73,491.598 227.563,489.931 229.5,488.5 Z"/></g>
<g><path style="opacity:1" fill="#d6d6d6" d="M 213.5,491.5 C 214.5,491.5 215.5,491.5 216.5,491.5C 216.762,492.978 216.429,494.311 215.5,495.5C 213.889,494.68 213.222,493.346 213.5,491.5 Z"/></g>
<g><path style="opacity:1" fill="#cfcfcf" d="M 934.5,495.5 C 936.385,497.795 936.885,500.462 936,503.5C 934.625,501.063 934.125,498.397 934.5,495.5 Z"/></g>
<g><path style="opacity:1" fill="#fdfdfd" d="M 675.5,507.5 C 678.632,512.857 682.632,517.691 687.5,522C 693.192,523.731 698.858,525.731 704.5,528C 707.833,528.667 711.167,528.667 714.5,528C 719.432,526.314 723.765,523.981 727.5,521C 722.204,527.083 718.037,533.916 715,541.5C 712.819,545.29 710.819,545.29 709,541.5C 707.596,548.281 703.763,550.447 697.5,548C 699.9,544.222 699.733,540.388 697,536.5C 694.993,535.331 692.827,534.665 690.5,534.5C 690.5,536.5 690.5,538.5 690.5,540.5C 689.167,540.5 687.833,540.5 686.5,540.5C 686.33,539.178 686.663,538.011 687.5,537C 684.833,533.667 682.167,530.333 679.5,527C 677.866,526.506 676.199,526.34 674.5,526.5C 674.509,524.692 674.009,523.025 673,521.5C 671.028,520.695 669.528,519.361 668.5,517.5C 670.297,515.869 671.464,513.869 672,511.5C 672.667,512.167 673.333,512.833 674,513.5C 674.315,511.414 674.815,509.414 675.5,507.5 Z"/></g>
<g><path style="opacity:1" fill="#dfdfdf" d="M 974.5,512.5 C 974.905,516.048 974.405,519.381 973,522.5C 972.51,521.207 972.343,519.873 972.5,518.5C 973.167,516.5 973.833,514.5 974.5,512.5 Z"/></g>
<g><path style="opacity:1" fill="#d3d3d3" d="M 135.5,546.5 C 136.5,546.5 137.5,546.5 138.5,546.5C 138.762,549.691 140.095,552.358 142.5,554.5C 142.167,554.833 141.833,555.167 141.5,555.5C 138.697,553.031 136.697,550.031 135.5,546.5 Z"/></g>
<g><path style="opacity:1" fill="#fcfcfc" d="M 960.5,553.5 C 961.782,554.708 961.782,556.042 960.5,557.5C 959.374,556.192 959.374,554.858 960.5,553.5 Z"/></g>
<g><path style="opacity:1" fill="#d6d6d6" d="M 146.5,561.5 C 147.995,561.415 148.995,562.081 149.5,563.5C 147.604,564.639 146.604,563.973 146.5,561.5 Z"/></g>
<g><path style="opacity:1" fill="#fbfbfb" d="M 962.5,560.5 C 963.117,560.611 963.617,560.944 964,561.5C 964.273,569.094 963.773,568.761 962.5,560.5 Z"/></g>
<g><path style="opacity:1" fill="#cfcfcf" d="M 140.5,566.5 C 143.5,566.167 144.833,567.5 144.5,570.5C 141.5,570.833 140.167,569.5 140.5,566.5 Z"/></g>
<g><path style="opacity:1" fill="#d2d2d2" d="M 729.5,637.5 C 730.978,637.238 732.311,637.571 733.5,638.5C 733.291,639.086 732.957,639.586 732.5,640C 730.5,640.667 728.5,640.667 726.5,640C 727.571,639.148 728.571,638.315 729.5,637.5 Z"/></g>
<g><path style="opacity:1" fill="#d4d4d4" d="M 344.5,754.5 C 345.675,754.281 346.675,754.614 347.5,755.5C 345.948,756.798 344.948,756.465 344.5,754.5 Z"/></g>
<g><path style="opacity:1" fill="#fdfdfd" d="M 568.5,766.5 C 576.589,765.076 578.422,767.743 574,774.5C 570.685,775.603 567.851,777.436 565.5,780C 564.167,780.667 562.833,780.667 561.5,780C 560.398,777.599 560.231,775.099 561,772.5C 563.688,770.636 566.188,768.636 568.5,766.5 Z"/></g>
<g><path style="opacity:1" fill="#f5f5f5" d="M 540.5,811.5 C 542.929,811.585 544.929,812.585 546.5,814.5C 543.474,815.654 541.474,814.654 540.5,811.5 Z"/></g>
<g><path style="opacity:1" fill="#cccccc" d="M 695.5,821.5 C 699.144,821.708 701.311,823.708 702,827.5C 702.667,831.167 702.667,834.833 702,838.5C 700.951,840.107 699.451,840.773 697.5,840.5C 697.662,842.527 697.495,844.527 697,846.5C 688.844,860.141 680.177,873.474 671,886.5C 663.203,894.38 653.703,898.047 642.5,897.5C 642.334,892.489 642.501,887.489 643,882.5C 649.907,876.491 652.574,868.824 651,859.5C 652,857.5 653,855.5 654,853.5C 661.676,851.157 668.843,847.657 675.5,843C 682.29,835.896 688.957,828.73 695.5,821.5 Z"/></g>
<g><path style="opacity:1" fill="#fbfbfb" d="M 579.5,836.5 C 580.161,838.134 580.494,839.967 580.5,842C 580.596,844.375 580.096,846.541 579,848.5C 578.238,844.413 578.404,840.413 579.5,836.5 Z"/></g>
<g><path style="opacity:1" fill="#d5d5d5" d="M 730.5,854.5 C 733.012,855.216 733.012,856.216 730.5,857.5C 729.438,856.575 729.438,855.575 730.5,854.5 Z"/></g>
</svg>
