<?xml version="1.0" encoding="UTF-8"?>
<!DOCTYPE svg PUBLIC "-//W3C//DTD SVG 1.1//EN" "http://www.w3.org/Graphics/SVG/1.1/DTD/svg11.dtd">
<svg xmlns="http://www.w3.org/2000/svg" version="1.1" width="512px" height="512px" style="shape-rendering:geometricPrecision; text-rendering:geometricPrecision; image-rendering:optimizeQuality; fill-rule:evenodd; clip-rule:evenodd" xmlns:xlink="http://www.w3.org/1999/xlink">
<g><path style="opacity:0.973" fill="#4ccedf" d="M 205.5,-0.5 C 219.5,-0.5 233.5,-0.5 247.5,-0.5C 326.338,9.87963 385.838,49.213 426,117.5C 459.996,184.083 462.33,251.75 433,320.5C 424.648,338.651 414.148,355.318 401.5,370.5C 391.451,380.881 381.451,391.214 371.5,401.5C 300.405,455.729 222.738,467.229 138.5,436C 68.8544,404.911 24.3544,352.411 5,278.5C 2.74849,268.096 0.915154,257.762 -0.5,247.5C -0.5,233.5 -0.5,219.5 -0.5,205.5C 11.1055,116.399 57.7722,53.2324 139.5,16C 160.925,7.64361 182.925,2.14361 205.5,-0.5 Z M 223.5,41.5 C 303.856,44.7336 361.356,82.4003 396,154.5C 422.68,226.087 411.68,291.087 363,349.5C 315.809,398.985 258.309,418.152 190.5,407C 113.844,388.343 65.677,340.843 46,264.5C 32.9442,185.302 58.4442,121.802 122.5,74C 153.184,53.6045 186.85,42.7712 223.5,41.5 Z"/></g>
<g><path style="opacity:0.969" fill="#3a2c51" d="M 401.5,370.5 C 436.132,405.632 470.965,440.632 506,475.5C 508.374,478.263 510.208,481.263 511.5,484.5C 511.5,488.833 511.5,493.167 511.5,497.5C 508.414,504.254 503.414,508.921 496.5,511.5C 492.5,511.5 488.5,511.5 484.5,511.5C 481.263,510.208 478.263,508.374 475.5,506C 441.326,470.66 406.66,435.826 371.5,401.5C 381.451,391.214 391.451,380.881 401.5,370.5 Z"/></g>
</svg>
