<?xml version="1.0" encoding="UTF-8"?>
<!DOCTYPE svg PUBLIC "-//W3C//DTD SVG 1.1//EN" "http://www.w3.org/Graphics/SVG/1.1/DTD/svg11.dtd">
<svg xmlns="http://www.w3.org/2000/svg" version="1.1" width="512px" height="512px" style="shape-rendering:geometricPrecision; text-rendering:geometricPrecision; image-rendering:optimizeQuality; fill-rule:evenodd; clip-rule:evenodd" xmlns:xlink="http://www.w3.org/1999/xlink">
    <g><path style="opacity:0.995" fill="#80cdf6" d="M 326.5,106.5 C 371.096,105.538 403.93,124.538 425,163.5C 435.597,187.282 437.097,211.616 429.5,236.5C 480.374,248.877 504.207,281.21 501,333.5C 492.257,374.576 467.091,398.076 425.5,404C 317.5,404.667 209.5,404.667 101.5,404C 56.8809,398.786 27.3809,374.952 13,332.5C 2.03049,284.648 16.5305,246.815 56.5,219C 81.3157,204.86 107.649,201.026 135.5,207.5C 144.087,180.414 162.087,162.914 189.5,155C 208.742,150.718 227.242,152.884 245,161.5C 262.864,129.483 290.03,111.15 326.5,106.5 Z"/></g>
</svg>
