<?xml version="1.0" encoding="UTF-8"?>
<!DOCTYPE svg PUBLIC "-//W3C//DTD SVG 1.1//EN" "http://www.w3.org/Graphics/SVG/1.1/DTD/svg11.dtd">
<svg xmlns="http://www.w3.org/2000/svg" version="1.1" width="512px" height="512px" style="shape-rendering:geometricPrecision; text-rendering:geometricPrecision; image-rendering:optimizeQuality; fill-rule:evenodd; clip-rule:evenodd" xmlns:xlink="http://www.w3.org/1999/xlink">
<g><path style="opacity:0.998" fill="#fcd353" d="M 250.5,-0.5 C 253.833,-0.5 257.167,-0.5 260.5,-0.5C 265.321,1.80079 269.488,5.13413 273,9.5C 322.631,64.7992 372.631,119.799 423,174.5C 426.053,177.887 428.72,181.553 431,185.5C 433.649,195.36 430.482,202.527 421.5,207C 392.835,207.5 364.169,207.667 335.5,207.5C 335.667,305.501 335.5,403.501 335,501.5C 332.978,506.02 329.811,509.353 325.5,511.5C 278.833,511.5 232.167,511.5 185.5,511.5C 181.189,509.353 178.022,506.02 176,501.5C 175.5,403.501 175.333,305.501 175.5,207.5C 146.831,207.667 118.165,207.5 89.5,207C 80.5178,202.527 77.3511,195.36 80,185.5C 82.2798,181.553 84.9465,177.887 88,174.5C 140.85,117.284 193.35,59.7842 245.5,2C 247.315,1.24316 248.981,0.409824 250.5,-0.5 Z"/></g>
</svg>
